<?xml version="1.0" encoding="UTF-8"?>
<svg id="Layer_2" xmlns="http://www.w3.org/2000/svg" xmlns:xlink="http://www.w3.org/1999/xlink" version="1.1" viewBox="0 0 595.28 409.61">
  <!-- Generator: Adobe Illustrator 29.8.1, SVG Export Plug-In . SVG Version: 2.1.1 Build 2)  -->
  <defs>
    <style>
      .st0 {
        fill: url(#linear-gradient);
        opacity: .14;
      }
    </style>
    <linearGradient id="linear-gradient" x1="57.03" y1="204.8" x2="538.25" y2="204.8" gradientUnits="userSpaceOnUse">
      <stop offset="0" stop-color="#b58d5b"/>
      <stop offset=".3" stop-color="#907140"/>
      <stop offset=".42" stop-color="#be965d"/>
      <stop offset=".54" stop-color="#e5b576"/>
      <stop offset=".6" stop-color="#f4c280"/>
      <stop offset=".69" stop-color="#e2b374"/>
      <stop offset=".87" stop-color="#b58f57"/>
      <stop offset="1" stop-color="#907140"/>
    </linearGradient>
  </defs>
  <path class="st0" d="M536.34,302.42l-184.63-220.26c-13.36-15.94-32.94-25.08-53.74-25.08h-.01c-20.8,0-40.39,9.15-53.74,25.1L58.93,303.39c-2.85,3.4-2.15,7.47-.19,9.99,1.37,1.77,3.64,3.14,6.25,3.14.5,0,1.01-.06,1.53-.16.23.42.49.81.78,1.17,1.37,1.69,3.57,2.98,6.09,2.98.51,0,1.03-.06,1.56-.17.27.48.57.94.92,1.35,1.57,1.86,3.67,2.84,5.86,2.84.55,0,1.11-.07,1.66-.2.3.55.66,1.06,1.06,1.52,1.55,1.76,3.58,2.67,5.68,2.67.56,0,1.13-.08,1.69-.21.33.6.73,1.17,1.21,1.69,1.53,1.66,3.49,2.51,5.5,2.51.58,0,1.16-.08,1.74-.22.38.71.84,1.34,1.35,1.88,1.5,1.55,3.39,2.35,5.32,2.34.59,0,1.17-.09,1.76-.23.42.79.95,1.49,1.53,2.06,1.47,1.44,3.28,2.18,5.12,2.18.6,0,1.19-.09,1.79-.25.46.87,1.05,1.63,1.71,2.24,1.44,1.33,3.16,2.01,4.92,2.01.6,0,1.21-.1,1.81-.26.51.95,1.17,1.78,1.9,2.43,1.4,1.22,3.04,1.84,4.71,1.84.62,0,1.24-.09,1.84-.26.54,1.03,1.26,1.92,2.09,2.6,1.35,1.11,2.92,1.67,4.48,1.67,1.53,0,3.08-.53,4.43-1.6,51.48-40.51,103.41-61.1,154.35-61.19.11,0,.22,0,.33,0,50.58,0,101.29,20.21,150.72,60.08,2.74,2.21,6.27,2.22,8.98.02.84-.68,1.57-1.57,2.12-2.61,2.23.61,4.58.09,6.49-1.56.74-.64,1.41-1.47,1.92-2.43,2.31.62,4.75.03,6.68-1.74.66-.61,1.26-1.37,1.73-2.24,2.4.62,4.92-.03,6.86-1.92.59-.57,1.12-1.27,1.55-2.06,2.49.62,5.07-.1,7.03-2.09.52-.54.99-1.18,1.38-1.89,2.57.63,5.23-.16,7.19-2.26.46-.49.87-1.07,1.22-1.71,2.66.62,5.37-.23,7.34-2.44.41-.46.77-.97,1.08-1.53,2.73.61,5.5-.31,7.47-2.61.35-.41.66-.87.93-1.36,3.12.66,5.96-.76,7.6-2.78.3-.37.57-.77.8-1.19,3.21.65,6.09-.85,7.73-2.94,1.98-2.53,2.7-6.62-.17-10.04ZM297.97,68.2h0c12.71,0,24.2,7.63,30.72,20.41l95.16,186.37c-83.22-21.72-167.55-21.33-252.29,1.19l95.68-187.55c6.52-12.78,18.01-20.42,30.72-20.42ZM449.89,289.22l2.73,4.74c-2.05-.79-4.1-1.57-6.15-2.33l-2.38-4.39c1.94.65,3.87,1.31,5.81,1.98ZM442.99,285.24l-2.36-4.34c1.8.54,3.61,1.09,5.41,1.65l2.66,4.63c-1.9-.65-3.81-1.3-5.71-1.93ZM465.74,299.25c-2.48-1.04-4.96-2.07-7.45-3.06l-2.88-5c2.33.84,4.65,1.7,6.98,2.58l3.35,5.49ZM462.95,288.08c2.56.89,5.12,1.8,7.68,2.73l3.89,6.03c-2.74-1.11-5.48-2.2-8.22-3.25l-3.36-5.5ZM454.21,289.1l-2.8-4.86c2.16.69,4.31,1.4,6.46,2.12l3.2,5.25c-2.29-.85-4.58-1.69-6.86-2.51ZM454.16,296.64l2.87,4.98c-2.23-.97-4.46-1.93-6.7-2.86l-2.46-4.54c2.1.79,4.2,1.59,6.29,2.41ZM458.98,305l3.14,5.45c-2.46-1.22-4.92-2.41-7.38-3.58l-2.64-4.87c2.3.98,4.59,1.98,6.89,3ZM459.87,298.92c2.54,1.03,5.07,2.09,7.61,3.17l3.63,5.95c-2.72-1.3-5.44-2.55-8.16-3.79l-3.07-5.33ZM467.64,295.78c2.78,1.09,5.57,2.2,8.35,3.34l4.19,6.49c-3-1.37-6-2.72-9-4.03l-3.54-5.8ZM479.47,298.87l-4.05-6.28c3.04,1.14,6.08,2.29,9.11,3.49l4.78,7.02c-3.28-1.45-6.56-2.86-9.84-4.23ZM350.34,94.44l148.16,206.09c-3.56-1.51-7.13-2.98-10.7-4.41l-137.46-201.68ZM483.35,294.35c-3-1.17-6-2.31-9.01-3.43l-118.79-184.07,127.79,187.5ZM469.58,289.18c-2.53-.91-5.06-1.8-7.59-2.67l-101.79-166.82,109.38,169.49ZM456.91,284.78c-2.13-.71-4.26-1.4-6.38-2.08l-86.3-149.82,92.68,151.9ZM445.17,281.04c-1.78-.55-3.56-1.08-5.34-1.61l-72.15-132.91,77.48,134.52ZM164.81,289.43c89.34-29.79,178.25-30.24,265.75-1.32l1.85,3.63c-88.67-32.48-178.86-32.02-269.48,1.37l1.88-3.68ZM162.87,283.2c-1.59.49-3.18.99-4.76,1.49l2.27-4.18c1.51-.44,3.02-.86,4.52-1.29l-2.03,3.98ZM166.06,286.97l1.89-3.7c87.2-26.01,173.99-26.42,259.51-1.25l1.86,3.64c-86.7-28.24-174.76-27.81-263.25,1.3ZM430.51,277.99c1.49.41,2.97.82,4.46,1.24l2.24,4.13c-1.57-.5-3.13-.97-4.7-1.45l-2-3.92ZM434.19,277.79c-1.47-.42-2.94-.82-4.4-1.23l-59.2-115.96,63.61,117.18ZM426.48,280.12c-84.9-24.71-171.02-24.29-257.56,1.25l1.93-3.78c85.23-22.82,170.05-23.21,253.73-1.19l1.9,3.72ZM165.63,277.79c-1.49.41-2.97.83-4.46,1.25l64.28-118.52-59.83,117.27ZM155.51,280.69c-1.8.54-3.6,1.09-5.4,1.65l78.21-135.89-72.81,134.24ZM119.19,300.47c2.8-1.14,5.59-2.24,8.39-3.33l-3.54,5.8c-3.01,1.3-6.01,2.63-9.02,3.99l4.17-6.47ZM105.86,304.4l4.75-6.97c3.05-1.19,6.11-2.36,9.16-3.5l-4.06,6.29c-3.28,1.36-6.57,2.75-9.85,4.18ZM139.86,292.53l-2.91,5.05c-2.5,1-5,2.02-7.49,3.07l3.37-5.53c2.34-.88,4.69-1.75,7.03-2.59ZM134.13,292.98l3.21-5.27c2.18-.73,4.35-1.45,6.53-2.15l-2.82,4.9c-2.31.82-4.61,1.67-6.92,2.52ZM128.9,294.96c-2.75,1.06-5.5,2.14-8.26,3.25l3.88-6.02c2.58-.94,5.16-1.85,7.74-2.75l-3.37,5.52ZM127.74,303.47c2.55-1.08,5.1-2.14,7.65-3.17l-3.07,5.33c-2.73,1.23-5.47,2.49-8.21,3.78l3.62-5.94ZM136.26,306.41c2.31-1.02,4.62-2.02,6.93-3l-2.64,4.87c-2.47,1.16-4.94,2.34-7.42,3.56l3.12-5.43ZM138.21,303.02l2.87-4.99c2.12-.83,4.23-1.64,6.35-2.44l-2.47,4.56c-2.25.94-4.5,1.89-6.75,2.87ZM142.62,295.36l2.75-4.78c1.96-.68,3.91-1.35,5.87-2l-2.4,4.43c-2.07.77-4.14,1.55-6.21,2.35ZM146.56,288.51l2.69-4.67c1.82-.57,3.64-1.13,5.47-1.68l-2.38,4.4c-1.92.64-3.85,1.29-5.77,1.95ZM144.75,284.04c-2.15.69-4.3,1.39-6.45,2.11l93.48-153.33-87.04,151.23ZM133.24,287.84c-2.55.88-5.1,1.78-7.65,2.69l110.23-170.94-102.58,168.25ZM120.83,292.28c-3.01,1.11-6.03,2.24-9.04,3.41L240.44,106.79l-119.61,185.49ZM107.35,297.45c-3.57,1.42-7.14,2.86-10.71,4.35L245.66,94.37l-138.31,203.08ZM92.55,303.54c-4.26,1.82-8.51,3.69-12.77,5.62L249.99,84.27c.36-.47.73-.93,1.1-1.38-.17.23-.35.45-.52.68l-158.02,219.98ZM95.31,303.65c3.62-1.53,7.23-3.02,10.85-4.46l-4.94,7.26c-3.93,1.75-7.86,3.55-11.8,5.4l5.89-8.2ZM104.22,306.81c3.34-1.47,6.67-2.89,10.01-4.29l-4.37,6.78c-3.63,1.69-7.25,3.42-10.88,5.2l5.24-7.7ZM113.08,309.94c3.07-1.41,6.13-2.78,9.2-4.12l-3.85,6.31c-3.33,1.62-6.67,3.3-10,5.01l4.64-7.2ZM121.91,313.02c2.81-1.35,5.62-2.66,8.42-3.95l-3.37,5.85c-3.04,1.55-6.09,3.15-9.13,4.78l4.07-6.68ZM130.72,316.04c2.56-1.28,5.11-2.54,7.67-3.77l-2.93,5.41c-2.76,1.47-5.52,2.97-8.28,4.52l3.54-6.16ZM139.5,318.99c2.31-1.21,4.62-2.41,6.93-3.57l-2.52,4.95c-2.49,1.4-4.99,2.83-7.48,4.29l3.08-5.67ZM142.1,314.2l2.68-4.93c2.08-.96,4.15-1.89,6.23-2.81l-2.25,4.4c-2.22,1.09-4.44,2.21-6.66,3.34ZM146.9,305.35l2.44-4.49c1.89-.77,3.79-1.53,5.68-2.27l-2.09,4.09c-2.01.87-4.02,1.76-6.03,2.67ZM151.07,297.65l2.31-4.26c1.74-.63,3.49-1.25,5.23-1.86l-2.02,3.96c-1.84.71-3.68,1.43-5.52,2.16ZM154.76,290.85l2.27-4.18c1.62-.52,3.24-1.04,4.85-1.54l-2,3.92c-1.71.59-3.41,1.19-5.12,1.8ZM161.37,296.16c91.68-34.35,182.92-34.81,272.59-1.38l1.9,3.72c-90.85-37.62-183.41-37.15-276.41,1.42l1.92-3.76ZM435.48,287.73l-1.98-3.87c1.6.49,3.19.99,4.79,1.5l2.24,4.13c-1.68-.6-3.37-1.18-5.05-1.76ZM441.92,292.04l2.29,4.22c-1.82-.73-3.65-1.45-5.47-2.15l-1.99-3.91c1.72.6,3.45,1.21,5.17,1.83ZM445.94,299.45l2.43,4.48c-1.99-.9-3.98-1.79-5.98-2.65l-2.07-4.06c1.87.73,3.75,1.48,5.62,2.24ZM450.5,307.84l2.68,4.94c-2.21-1.14-4.41-2.26-6.62-3.36l-2.24-4.38c2.06.91,4.12,1.85,6.18,2.8ZM455.79,317.6l3.11,5.74c-2.49-1.48-4.98-2.94-7.47-4.35l-2.53-4.95c2.3,1.17,4.59,2.35,6.88,3.57ZM456.91,310.88c2.55,1.23,5.1,2.51,7.64,3.8l3.59,6.23c-2.76-1.57-5.52-3.1-8.28-4.59l-2.96-5.44ZM464.92,307.7c2.8,1.3,5.61,2.63,8.41,3.99l4.12,6.76c-3.04-1.66-6.08-3.27-9.13-4.85l-3.4-5.9ZM476.82,310.82l-3.88-6.35c3.06,1.35,6.13,2.74,9.19,4.17l4.7,7.29c-3.34-1.74-6.67-3.45-10.01-5.1ZM485.37,308.01l-4.4-6.82c3.33,1.41,6.67,2.84,9.99,4.33l5.32,7.81c-3.64-1.82-7.27-3.6-10.91-5.32ZM489,297.87c3.62,1.46,7.23,2.96,10.84,4.51l5.97,8.31c-3.94-1.9-7.89-3.73-11.84-5.52l-4.98-7.3ZM345.34,83.53c-.14-.19-.28-.37-.42-.55.34.42.67.83,1,1.26l169.52,223.8c-4.27-1.97-8.55-3.89-12.82-5.74l-157.28-218.77ZM66,315.26c-2.78.46-5.07-.98-6.33-2.6-1.54-1.99-2.43-5.42.17-8.51L245.11,82.94c5.46-6.51,11.97-11.87,19.19-15.91-6.77,4.02-12.86,9.26-17.96,15.6l-179.04,224.77c-2.08,2.59-2.19,5.5-1.29,7.86ZM74.31,318.88c-2.51.41-4.62-.87-5.8-2.33-.17-.21-.32-.43-.47-.67.15-.06.3-.11.45-.19,2.11-1.01,4.22-1.99,6.33-2.97-1.1,2.1-1.12,4.28-.51,6.16ZM67.98,314.63c-.16.08-.32.14-.48.2-.75-1.85-.79-4.22,1.01-6.46L247.55,83.61c2.52-3.13,5.29-5.98,8.27-8.55-2.64,2.44-5.11,5.12-7.36,8.04l-172.36,227.74c-2.7,1.25-5.41,2.51-8.11,3.8ZM82.63,322.5c-2.27.37-4.19-.75-5.3-2.06-.19-.23-.37-.48-.53-.74.05-.02.1-.04.15-.07,2.13-1.07,4.26-2.12,6.39-3.15-1.12,2.05-1.23,4.16-.71,6.02ZM76.26,318.24s-.07.03-.11.05c-.57-1.73-.42-3.81,1.03-5.7l1.11-1.46c4.31-1.97,8.63-3.89,12.94-5.75l-6.12,8.52c-2.95,1.42-5.9,2.86-8.84,4.33ZM91,326.13c-2.02.36-3.75-.59-4.83-1.81-.22-.25-.42-.52-.6-.82,2.11-1.11,4.21-2.2,6.32-3.28-1.03,1.85-1.32,3.94-.89,5.91ZM84.82,321.71c-.37-1.52-.16-3.27,1.04-4.9l1.68-2.34c4.01-1.91,8.01-3.77,12.02-5.58l-5.5,8.07c-3.08,1.55-6.16,3.13-9.24,4.75ZM99.37,329.74c-1.81.34-3.38-.49-4.38-1.56-.25-.27-.48-.57-.68-.9,2.04-1.13,4.08-2.25,6.12-3.34-1.16,1.96-1.4,3.99-1.07,5.81ZM93.52,325.08c-.18-1.29.07-2.71,1.02-4.07l2.21-3.24c3.71-1.85,7.42-3.65,11.12-5.4l-4.91,7.62c-3.15,1.66-6.29,3.35-9.44,5.09ZM107.74,333.37c-2.01.41-3.46-.86-3.93-1.34-.28-.29-.54-.62-.76-.99,1.98-1.15,3.95-2.29,5.93-3.41-1.19,1.93-1.5,3.93-1.24,5.73ZM102.28,328.4c-.02-1.03.25-2.12.96-3.19l2.69-4.17c3.42-1.79,6.84-3.52,10.26-5.22l-4.37,7.17c-3.18,1.76-6.36,3.56-9.54,5.41ZM117.34,331.65c-1.06,1.81-1.38,3.65-1.22,5.33-1.76.39-3.08-.69-3.5-1.11-.31-.3-.59-.67-.83-1.08,1.91-1.18,3.82-2.34,5.74-3.48l-.19.33ZM111.14,331.62c.09-.73.33-1.49.8-2.23l3.13-5.14c3.14-1.72,6.28-3.39,9.43-5.02l-3.87,6.72c-3.16,1.84-6.33,3.74-9.49,5.68ZM125.66,335.73c-.91,1.66-1.23,3.33-1.14,4.87-1.47.38-2.61-.45-3.1-.9-.35-.32-.66-.72-.91-1.17,1.85-1.2,3.7-2.39,5.55-3.56l-.41.75ZM120.13,334.71c.12-.38.28-.76.5-1.14l3.53-6.13c2.88-1.66,5.75-3.27,8.63-4.84l-3.41,6.28c-3.08,1.89-6.17,3.84-9.25,5.83ZM133.98,339.82c-.75,1.47-1.05,2.97-1.02,4.39-1.23.39-2.21-.21-2.75-.68-.38-.33-.72-.77-.98-1.26,1.78-1.23,3.57-2.44,5.35-3.63l-.61,1.19ZM129.46,337.5l3.76-6.93c2.62-1.58,5.23-3.14,7.85-4.64l-2.99,5.86c-2.87,1.85-5.74,3.76-8.62,5.71ZM142.2,347.34c-1.35,1.06-2.48.58-3.2,0-.42-.35-.78-.82-1.04-1.37,28.2-20.63,56.53-35.95,84.77-45.88-26.79,10.36-53.65,26.11-80.53,47.26ZM138.98,340.05l3.27-6.41c29.48-18.78,58.93-32.32,88.3-40.6-30.46,9.45-61,25.12-91.57,47.02ZM145.62,327.03l2.63-5.15c31.71-17.47,63.39-29.49,94.96-36.04-32.44,7.4-64.99,21.13-97.58,41.2ZM151.01,316.46l2.24-4.4c37.24-17.91,74.42-29.04,111.45-33.37-37.77,4.84-75.7,17.42-113.69,37.76ZM155.54,307.59l2.03-3.99c94.28-39.89,188.12-40.36,280.18-1.41l2.01,3.94c-93.31-43.96-188.55-43.46-284.22,1.46ZM442.06,310.64l2.24,4.38c-36.66-19.79-73.63-31.97-110.84-36.53,36.44,4.06,72.66,14.78,108.6,32.15ZM447.09,320.48l2.65,5.19c-31.49-19.68-63.24-33.09-95.17-40.22,31.03,6.29,61.9,17.98,92.53,35.04ZM453.15,332.35l3.35,6.56c-29.65-21.72-59.55-37.19-89.64-46.42,28.95,8.05,57.73,21.33,86.29,39.86ZM456.52,346.3c-.73.59-1.88,1.07-3.24-.03-26.15-21.09-52.5-36.71-79.02-46.88,28,9.74,55.85,24.95,83.31,45.55-.26.55-.62,1.02-1.05,1.37ZM457.35,330.55l-3.04-5.96c2.62,1.53,5.24,3.12,7.86,4.73l3.85,7.09c-2.89-2.01-5.77-3.96-8.66-5.86ZM465.27,342.5c-.53.46-1.5,1.04-2.7.68.03-1.43-.26-2.93-1.02-4.41l-.64-1.26c1.79,1.22,3.57,2.46,5.36,3.72-.26.5-.61.93-.99,1.27ZM474.03,338.7c-.48.44-1.6,1.24-3.05.89.09-1.55-.23-3.22-1.14-4.89l-.45-.82c1.85,1.2,3.71,2.41,5.56,3.65-.25.45-.57.85-.92,1.17ZM466.02,327.67l-3.47-6.39c2.88,1.6,5.77,3.25,8.64,4.94l3.64,6.32h0c.22.38.38.76.49,1.13-3.1-2.05-6.21-4.06-9.32-6ZM482.8,334.88c-.42.41-1.72,1.47-3.45,1.1.17-1.69-.15-3.53-1.21-5.34l-.24-.41c1.92,1.17,3.83,2.36,5.74,3.57-.24.41-.52.78-.84,1.09ZM474.75,324.76l-3.93-6.83c3.15,1.67,6.3,3.37,9.45,5.13l3.24,5.31v.02c.47.74.72,1.49.8,2.22-3.19-2-6.37-3.96-9.56-5.85ZM491.59,331.05c-.47.48-1.91,1.72-3.88,1.32.26-1.82-.05-3.84-1.27-5.8h0c1.98,1.13,3.95,2.29,5.93,3.48-.22.37-.48.7-.77,1ZM483.54,321.82l-4.44-7.28c3.43,1.73,6.86,3.49,10.29,5.32l2.8,4.33h0c.71,1.08.98,2.18.95,3.21-3.2-1.91-6.4-3.77-9.6-5.58ZM500.37,327.2c-.99,1.06-2.55,1.87-4.33,1.55.34-1.84.09-3.9-1.1-5.88,2.04,1.12,4.08,2.26,6.12,3.42-.2.33-.43.64-.69.91ZM501.87,324.1c-3.16-1.79-6.33-3.53-9.5-5.24l-5-7.74c3.72,1.79,7.45,3.62,11.16,5.52l2.3,3.38h0c.95,1.37,1.21,2.8,1.02,4.09ZM509.17,323.35c-1.08,1.21-2.79,2.14-4.79,1.79.43-1.86.26-3.96-.9-5.97,2.1,1.1,4.2,2.21,6.3,3.35-.18.3-.39.58-.61.83ZM510.54,320.73c-3.09-1.67-6.19-3.29-9.28-4.88l-5.59-8.2c4.03,1.84,8.05,3.75,12.07,5.71l1.76,2.45h0c1.2,1.65,1.41,3.39,1.03,4.92ZM517.97,319.49c-1.1,1.29-3.01,2.4-5.24,2.04.53-1.87.41-4.01-.74-6.08,2.1,1.05,4.21,2.11,6.31,3.19.07.04.15.06.22.1-.17.27-.35.52-.55.75ZM519.18,317.33c-.06-.03-.11-.05-.17-.08-2.94-1.51-5.88-2.97-8.82-4.42l-6.23-8.66c4.34,1.9,8.67,3.86,13,5.88l1.18,1.56h0c1.46,1.9,1.6,3.98,1.02,5.72ZM526.77,315.61c-1.18,1.45-3.27,2.7-5.75,2.3.63-1.89.6-4.1-.52-6.21,2.08.99,4.17,1.99,6.25,3,.17.08.34.15.51.22-.15.24-.31.47-.48.68ZM527.79,313.88c-.18-.07-.35-.14-.53-.23-2.69-1.32-5.38-2.6-8.08-3.87l-171.73-226.71c-2.24-2.9-4.69-5.57-7.31-7.99,2.96,2.56,5.71,5.39,8.22,8.51l178.43,223.82h0c1.72,2.14,1.78,4.55,1,6.48ZM535.58,311.73c-1.26,1.61-3.54,3.03-6.28,2.58.91-2.37.8-5.29-1.28-7.88l-178.43-223.82c-5.09-6.32-11.17-11.55-17.91-15.56,7.19,4.03,13.69,9.37,19.13,15.87l184.63,220.26c2.61,3.11,1.71,6.55.14,8.55Z"/>
</svg>