<?xml version="1.0" encoding="UTF-8"?>
<svg id="Layer_2" xmlns="http://www.w3.org/2000/svg" xmlns:xlink="http://www.w3.org/1999/xlink" version="1.1" viewBox="0 0 526 89.56">
  <!-- Generator: Adobe Illustrator 29.8.1, SVG Export Plug-In . SVG Version: 2.1.1 Build 2)  -->
  <defs>
    <style>
      .st0 {
        fill: url(#linear-gradient);
      }
    </style>
    <linearGradient id="linear-gradient" x1="34.69" y1="44.64" x2="516.58" y2="44.64" gradientUnits="userSpaceOnUse">
      <stop offset="0" stop-color="#b58d5b"/>
      <stop offset=".3" stop-color="#907140"/>
      <stop offset=".42" stop-color="#be965d"/>
      <stop offset=".54" stop-color="#e5b576"/>
      <stop offset=".6" stop-color="#f4c280"/>
      <stop offset=".69" stop-color="#e2b374"/>
      <stop offset=".87" stop-color="#b58f57"/>
      <stop offset="1" stop-color="#907140"/>
    </linearGradient>
  </defs>
  <path class="st0" d="M37.68,85.56L492.16,4.55c.08-.01.16-.03.23-.04-1.31.24-3.93.74-4.52.91h0S127.32,85.56,127.32,85.56h3.45S487.58,6.26,487.58,6.26L193.48,85.56h3.74S485.29,7.89,485.29,7.89l-242.06,77.67h3.92S483.45,9.74,483.45,9.74l-201.38,75.83h4.04S482.01,11.8,482.01,11.8l-168.81,73.77h4.11S480.94,14.06,480.94,14.06l-142.18,71.5h4.17S480,16.63,480,16.63l-119.88,68.93h4.24S495.9,9.93,495.9,9.93c1.3-.75,2.65-1.23,4-1.42,3.15-.45,6.16.51,8.24,2.65,2.17,2.23,3.08,5.47,2.49,8.9-.06.38-.17.77-.32,1.18l-23.1,64.32h2.25s14.93-41.58,14.93-41.58l-12.08,41.58h1.95s12.93-44.51,12.93-44.51l-10.2,44.51h1.69s10.97-47.89,10.97-47.89l-8.33,47.89h1.44s9.04-51.97,9.04-51.97l-6.45,51.97h1.21s7.05-56.81,7.05-56.81l-4.47,56.81h.98s4.76-60.49,4.76-60.49v-.04c0-.27,0-.58,0-.92,0-.58.01-1.21,0-1.84.07.96.08,1.85.08,2.49l-2.27,60.79h.75s2.27-60.78,2.27-60.78c0-1.52-.09-4.36-.67-6.35l-.09-.3c-.08-.27-.16-.54-.24-.81.86,2.27,1.32,4.71,1.32,7.21l.03,61.03h.52l-.03-61.03c0-6.18-2.72-12-7.46-15.96-4.74-3.97-10.94-5.62-17.03-4.54L34.69,85.56h2.99Z"/>
</svg>