<?xml version="1.0" encoding="UTF-8"?>
<svg id="Logo_Lockup" xmlns="http://www.w3.org/2000/svg" xmlns:xlink="http://www.w3.org/1999/xlink" version="1.1" viewBox="0 0 2693.69 959.64">
  <!-- Generator: Adobe Illustrator 29.8.1, SVG Export Plug-In . SVG Version: 2.1.1 Build 2)  -->
  <defs>
    <style>
      .st0 {
        fill: #00629d;
      }

      .st1 {
        fill: url(#_ÂÁ_Ï_ÌÌ_È_ËÂÌÚ_4);
      }

      .st2 {
        fill: #e2b171;
      }

      .st3 {
        fill: #baab97;
      }

      .st4 {
        fill: #fff;
      }

      .st5 {
        fill: url(#_ÂÁ_Ï_ÌÌ_È_ËÂÌÚ_41);
      }

      .st6 {
        fill: url(#_ÂÁ_Ï_ÌÌ_È_ËÂÌÚ_42);
      }
    </style>
    <linearGradient id="_ÂÁ_Ï_ÌÌ_È_ËÂÌÚ_4" data-name="¡ÂÁ˚ÏˇÌÌ˚È „‡‰ËÂÌÚ 4" x1="2104.8" y1="647.29" x2="2104.8" y2="647.29" gradientUnits="userSpaceOnUse">
      <stop offset="0" stop-color="#b58d5b"/>
      <stop offset=".28" stop-color="#907140"/>
      <stop offset=".42" stop-color="#be965d"/>
      <stop offset=".56" stop-color="#e5b576"/>
      <stop offset=".63" stop-color="#f4c280"/>
      <stop offset=".71" stop-color="#e2b374"/>
      <stop offset=".88" stop-color="#b58f57"/>
      <stop offset="1" stop-color="#907140"/>
    </linearGradient>
    <linearGradient id="_ÂÁ_Ï_ÌÌ_È_ËÂÌÚ_41" data-name="¡ÂÁ˚ÏˇÌÌ˚È „‡‰ËÂÌÚ 4" x1="2059.06" y1="601.99" x2="2059.06" y2="601.99" xlink:href="#_ÂÁ_Ï_ÌÌ_È_ËÂÌÚ_4"/>
    <linearGradient id="_ÂÁ_Ï_ÌÌ_È_ËÂÌÚ_42" data-name="¡ÂÁ˚ÏˇÌÌ˚È „‡‰ËÂÌÚ 4" x1="1652.68" y1="456.13" x2="1652.68" y2="456.13" xlink:href="#_ÂÁ_Ï_ÌÌ_È_ËÂÌÚ_4"/>
  </defs>
  <g>
    <g>
      <path class="st4" d="M101.37,861.74l-27.9-68.33h-8.63l-23.04,60.92c-9.84,26.15-13.21,28.57-18.61,28.97l-1.48.14v1.62s30.33,0,30.33,0v-1.62s-2.83-.14-2.83-.14c-6.19-.26-8.49-5.23-8.49-10.48,0-4.07,2.78-11.76,4.93-17.41l1.66-4.49h29.08l4.48,11.75c6.34,16.85,7.01,20.36-.13,20.62l-3.51.14v1.62h40.03v-1.62l-1.08-.14c-5.25-.66-7.01-2.29-14.83-21.56ZM74.73,846.69h-25.84l12.8-34.53,13.04,34.53Z"/>
      <path class="st4" d="M146.94,865.39v-71.16h-26.14v1.6s2.7.14,2.7.14c4.45.14,5.53.54,5.53,17.93v51.49c0,17.38-1.08,17.78-5.53,17.92l-2.7.14v1.62s34.5,0,34.5,0v-1.62s-2.7-.14-2.7-.14c-4.45-.14-5.67-.54-5.67-17.92Z"/>
      <path class="st4" d="M201.81,795.84l2.82.14c5.93.28,7.28,1.89,7.28,20.35v46.64c0,18.47-1.35,20.08-7.28,20.35l-2.82.14v1.62s43.79,0,43.79,0v-1.62l-2.82-.14c-9.98-.4-11.46-1.88-11.46-20.35v-19.71h9.43c7.15,0,12.27,3.68,15.77,15l.82,2.96h1.34v-37.46h-1.34l-.82,2.96c-3.1,9.7-8.63,12.3-15.77,12.3h-9.43v-22.69c0-18.19.8-17.85,6.47-17.85h6.61c14.82,0,23.18,4.79,28.97,21.36l1.48,4.59h1.35v-30.19h-74.4v1.6Z"/>
      <path class="st4" d="M377.85,865.39v-42.6h-26.14v1.63l2.7.13c4.45.28,5.53.54,5.53,17.93v22.92c0,17.38-1.08,17.78-5.53,17.92l-2.7.14v1.62h34.5v-1.62l-2.7-.14c-4.45-.14-5.67-.54-5.67-17.92Z"/>
      <rect class="st4" x="360.04" y="793.52" width="17.44" height="17.44" transform="translate(-459.26 495.72) rotate(-45)"/>
      <path class="st4" d="M410.59,833.08c0-4.99,3.5-7.96,9.57-7.96,7.71,0,16.07,4.82,18.89,13.04l1.08,3.23h1.49v-20.21h-1.35c-2.02,2.56-4.17,3.9-5.93,3.9-1.22,0-2.29-.54-3.64-1.08-4.05-1.88-7.15-2.82-10.92-2.82-11.72,0-21.83,7.27-21.83,18.86,0,23.72,34.5,17.53,34.5,33.15,0,6.34-4.85,9.44-12,9.44-10.41,0-20-7.63-22.78-15.08l-1.22-3.23h-1.48v22.5h1.48c2.57-2.83,4.99-4.17,7.28-4.17,1.48,0,2.96.66,4.99,1.34,4.17,2.02,7.67,2.83,11.72,2.83,13.74,0,24.66-7.28,24.66-19.55,0-24.66-34.52-18.29-34.52-34.19Z"/>
      <path class="st4" d="M516.42,865.39v-22.12c0-15.62-15.23-22.09-30.47-22.09-16.04,0-25.52,7.96-27.34,15.36l19.56,5.63c-2.96-11.75,5.33-16.76,9.98-16.76,5.8,0,10.34,2.63,10.34,12.06v16.85c-5.12-2.29-9.7-3.23-17.25-3.23-15.77,0-25.2,5.93-25.2,17.79,0,11.05,9.7,17.79,22.78,17.79,10.25,0,16.98-4.99,19.95-10.24v8.63h25.88v-1.62l-2.7-.14c-4.45-.14-5.53-.54-5.53-17.92ZM498.49,871.37c-2.56,5.39-7.81,9.29-12.94,9.29-6.07,0-10.92-3.38-10.92-11.23,0-8.86,5.8-13.5,12-13.5,4.59,0,8.22,1.08,11.86,2.82v12.62Z"/>
      <path class="st4" d="M338.62,865.39v-22.12c0-15.62-15.23-22.09-30.47-22.09-16.04,0-25.52,7.96-27.34,15.36l19.56,5.63c-2.96-11.75,5.33-16.76,9.98-16.76,5.8,0,10.34,2.63,10.34,12.06v16.85c-5.12-2.29-9.7-3.23-17.25-3.23-15.77,0-25.2,5.93-25.2,17.79,0,11.05,9.7,17.79,22.78,17.79,10.25,0,16.98-4.99,19.95-10.24v8.63h25.88v-1.62l-2.7-.14c-4.45-.14-5.53-.54-5.53-17.92ZM320.69,871.37c-2.56,5.39-7.81,9.29-12.94,9.29-6.07,0-10.92-3.38-10.92-11.23,0-8.86,5.8-13.5,12-13.5,4.59,0,8.22,1.08,11.86,2.82v12.62Z"/>
      <path class="st4" d="M555.65,865.39v-71.16h-26.14v1.6l2.7.14c4.45.14,5.53.54,5.53,17.93v51.49c0,17.38-1.08,17.78-5.53,17.92l-2.7.14v1.62h34.5v-1.62l-2.7-.14c-4.45-.14-5.67-.54-5.67-17.92Z"/>
      <path class="st4" d="M672.52,795.84l2.82.14c6.07.28,7.42,1.89,7.42,20.35v19.99h-42.73v-19.99c0-18.45,1.34-20.07,7.41-20.35l2.83-.14v-1.6s-39.76,0-39.76,0v1.6s2.82.14,2.82.14c5.93.28,7.28,1.89,7.28,20.35v46.64c0,18.47-1.35,20.08-7.28,20.35l-2.82.14v1.62s39.76,0,39.76,0v-1.62s-2.83-.14-2.83-.14c-6.07-.26-7.41-1.88-7.41-20.35v-22.41h42.73v22.41c0,18.47-1.35,20.08-7.42,20.35l-2.82.14v1.62h39.76v-1.62s-2.83-.14-2.83-.14c-5.93-.26-7.27-1.88-7.27-20.35v-46.64c0-18.45,1.34-20.07,7.27-20.35l2.83-.14v-1.6s-39.76,0-39.76,0v1.6Z"/>
      <path class="st4" d="M754.61,821.19c-21.29,0-33.96,14.68-33.96,32.75s12.68,32.88,33.96,32.88,33.96-14.69,33.96-32.76-12.66-32.87-33.96-32.87ZM754.61,882.58c-11.72,0-14.56-9.38-14.56-28.52s2.83-28.63,14.56-28.63,14.42,9.37,14.42,28.63c0,19.41-2.82,28.52-14.42,28.52Z"/>
      <path class="st4" d="M822.01,865.39v-71.16s-26.14,0-26.14,0v1.6s2.7.14,2.7.14c4.45.14,5.53.54,5.53,17.93v51.49c0,17.38-1.08,17.78-5.53,17.92l-2.7.14v1.62s34.5,0,34.5,0v-1.62l-2.7-.14c-4.45-.14-5.67-.54-5.67-17.92Z"/>
      <path class="st4" d="M901,865.39v-71.16h-26.14v1.6s2.7.14,2.7.14c4.45.14,5.53.54,5.53,17.93v8.76c-3.91-1.08-7.82-1.48-11.32-1.48-20.36,0-33.96,13.06-33.96,32.35,0,21.96,15.76,31.53,33.96,31.53h37.46v-1.62l-2.7-.14c-4.31-.14-5.53-.54-5.53-17.92ZM883.08,880.82h-8.9c-12,0-16.98-10.18-16.98-27.29,0-21.04,4.44-28.01,16.44-28.01,2.97,0,5.93.54,9.44,1.49v53.81Z"/>
      <rect class="st4" x="923.87" y="793.52" width="17.44" height="17.44" transform="translate(-294.12 894.41) rotate(-45)"/>
      <path class="st4" d="M941.86,865.39v-42.6h-26.15v1.63l2.7.13c4.45.28,5.53.54,5.53,17.93v22.92c0,17.38-1.08,17.78-5.53,17.92l-2.7.14v1.62h34.5v-1.62l-2.7-.14c-4.44-.14-5.65-.54-5.65-17.92Z"/>
      <path class="st4" d="M1027.03,865.39v-21.44c0-16.17-11.58-22.64-24.8-22.64-11.18,0-16.27,5.32-19.67,10.24v-8.76h-25.88v1.63l2.7.13c4.45.28,5.53.54,5.53,17.93v22.92c0,17.38-1.08,17.78-5.53,17.92l-2.7.14v1.62h34.5v-1.62l-2.7-.14c-4.45-.14-5.67-.54-5.67-17.92v-26.19c1.97-5.82,8.42-13.3,14.89-13.3,7.95,0,11.4,4.71,11.4,14.81v24.67c0,17.38-1.22,17.78-5.53,17.92l-2.7.14v1.62h34.36v-1.62l-2.7-.14c-4.45-.14-5.53-.54-5.53-17.92Z"/>
      <path class="st4" d="M1075.04,822.79c-17.79,0-33.96,9.7-33.96,31.54,0,19.41,13.6,32.35,33.96,32.35,3.77,0,7.41-.28,11.32-1.35v11.47c0,6.81-2.73,14.56-10.35,14.56-6.36,0-13.04-9.69-9.98-19.26l-19.56,5.63c1.12,6.62,10.91,15.36,27.34,15.36,20.22,0,30.47-10.09,30.47-22.09v-48.53c0-17.39,1.22-17.65,5.53-17.93l2.7-.13v-1.63h-37.46ZM1086.36,881.04c-3.51.94-6.34,1.48-9.44,1.48-12,0-16.44-7.02-16.44-28.18,0-17.11,4.98-27.31,17.11-27.31h8.76v54.01Z"/>
      <polygon class="st4" points="1112.18 710.87 1112.18 613.1 1088.11 626.47 1101.69 710.87 1112.18 710.87"/>
      <path class="st4" d="M663.19,717.04c0-1.51-.05-9.4-.12-20.2l11.44,14.03h113.91c13.15,0,19.05-6.97,21.99-13.41l10.94,13.41h33.28c19.78,0,31.81-6.86,38.31-14.28l11.65,14.28h29.54c13.58,0,19.42-7.43,22.26-14.03l11.45,14.03h14.15c12.19,0,22.06-2.84,29.68-6.86,9.18,4.19,20.72,6.86,32.41,6.86,22.35,0,25.14-16.51,25.29-22.27.16-5.92,2.94-75.51,2.94-75.51l-24.06,13.37s13.8,57.29,14.64,62.69c-4.83,2.13-14.18,3.54-26.13,3.54-3.74,0-7.27-.12-10.61-.36,3.45-4.33,5.17-8.51,5.17-11.39,0-12.97-2.58-32.36-13.42-32.36-13.88,0-25.25,21.36-25.25,35.19,0,2.84,1.09,5.66,3.01,8.34-5.75.44-11.08.58-14.9.58h-22.86c.48-1.63.81-3.05,1.09-4.09,1.48-5.57,8.08-30.63,8.08-30.63l-20.33,11.3,6.78,19.88c-4.83,2.13-11.55,3.54-23.5,3.54h-34.16c2.36-3.77,3.4-7.4,3.4-10.07,0-11.76-7.97-34.05-20.35-34.05-16.98,0-42.17,30.08-50.55,44.12h-16.17c.48-1.63.81-3.05,1.09-4.09,1.48-5.57,8.08-30.63,8.08-30.63l-20.33,11.3,6.78,19.88c-4.83,2.13-11.55,3.54-23.5,3.54h-121.24c-.2-30.81-.53-79.6-.53-79.6l-24.06,13.37,18.97,93.53c-10.76,6.6-27.92,10.92-39.87,10.92-18.37,0-22.31-10.39-22.18-20.93.08-6.38,2.17-11.13,2.17-11.13l-5.19-1.5s-3.9,11.07-3.9,24.91c0,13.84,8.64,28.82,25.32,28.82,40.49,0,49.43-28.29,49.43-34.05ZM997.56,682.23c5.06-6.7,14.25-12.64,18.64-12.64s10.16,3.83,10.93,14.33c-3.42,2.82-9.13,4.76-15.55,6.08-5.96-1.66-10.71-4.16-14.02-7.77ZM877.2,669.59c4.39,0,17.22,5.34,17.98,15.83-9.15,7.55-30.13,7.27-41.79,7.27h-20.19c16.4-17.03,29.65-23.11,44-23.11Z"/>
      <polygon class="st4" points="551.9 710.87 551.9 613.1 527.83 626.47 541.41 710.87 551.9 710.87"/>
      <path class="st4" d="M388.02,710.87h30.07c12.19,0,22.06-2.84,29.68-6.86,9.18,4.19,20.72,6.86,32.41,6.86,22.35,0,28.77-16.51,28.92-22.27.16-5.92,2.94-75.51,2.94-75.51l-24.06,13.37s13.8,57.29,14.64,62.69c-4.83,2.13-17.81,3.54-29.77,3.54-3.74,0-7.27-.12-10.61-.36,3.45-4.33,5.17-8.51,5.17-11.39,0-12.97-2.58-32.36-13.42-32.36-13.88,0-25.25,21.36-25.25,35.19,0,2.84,1.09,5.66,3.01,8.34-5.75.44-11.08.58-14.9.58h-26.62l9.67-79.6-24.06,13.37,8.04,84.41h4.14ZM433.65,682.23c5.06-6.7,14.25-12.64,18.64-12.64s10.16,3.83,10.93,14.33c-3.42,2.82-9.13,4.76-15.55,6.08-5.96-1.66-10.71-4.16-14.02-7.77Z"/>
      <path class="st4" d="M218.11,696.83l11.46,14.04h32.56c19.64,0,31.63-6.76,38.16-14.12l11.52,14.12h28.09c20.35,0,24.16-16.54,24.85-22.27.66-5.46-2.84-40.58-2.84-40.58l-20.33,11.3,17.69,29.84c-4.83,2.13-11.55,3.54-23.5,3.54h-32.43c2.36-3.77,3.4-7.4,3.4-10.07,0-11.76-7.97-34.05-20.35-34.05-16.98,0-42.17,30.08-50.54,44.12h-16.24c.48-1.63.81-3.05,1.09-4.09,1.48-5.57,8.08-30.63,8.08-30.63l-20.33,11.3,6.78,19.88c-4.83,2.13-11.55,3.54-23.5,3.54h-116.89v-52.08l-19.19,10.66,1.21,5.3c-20.18,9.41-29.75,21.15-29.75,33.7,0,9.68,18.61,17.12,33.17,17.12l4.6-15.73,4.39,19.21h126.58c13.59,0,19.43-7.44,22.27-14.04ZM284.69,669.59c4.39,0,17.22,5.34,17.98,15.83-9.15,7.55-30.13,7.27-41.79,7.27h-20.19c16.4-17.03,29.65-23.11,44-23.11ZM35.11,682.94c5.83-6.67,17.83-9.5,25.33-10.65l2.99,13.09c-6.64,1.58-20.93,3.97-28.32-2.44Z"/>
      <rect class="st4" x="1007.11" y="617.19" width="17.44" height="17.44" transform="translate(-145.05 901.63) rotate(-45)"/>
      <rect class="st4" x="957.38" y="725.15" width="17.44" height="17.44" transform="translate(-235.96 898.1) rotate(-45)"/>
      <rect class="st4" x="352.19" y="725.15" width="17.44" height="17.44" transform="translate(-413.21 470.14) rotate(-45)"/>
      <rect class="st4" x="932.72" y="725.15" width="17.44" height="17.44" transform="translate(-243.19 880.62) rotate(-45)"/>
      <rect class="st4" x="453.6" y="617.19" width="17.44" height="17.44" transform="translate(-307.17 510.23) rotate(-45)"/>
      <rect class="st4" x="428.94" y="617.19" width="17.44" height="17.44" transform="translate(-314.4 492.81) rotate(-45)"/>
      <rect class="st4" x="53.81" y="617.19" width="17.44" height="17.44" transform="translate(-424.27 227.54) rotate(-45)"/>
      <rect class="st4" x="29.15" y="617.19" width="17.44" height="17.44" transform="translate(-431.5 210.11) rotate(-45)"/>
      <rect class="st4" x="261.74" y="617.19" width="17.44" height="17.44" transform="translate(-363.37 374.58) rotate(-45)"/>
    </g>
    <g>
      <path class="st4" d="M488.72,468.8c43.29,43.29,113.49,43.29,156.78,0,43.29-43.29,43.29-113.48,0-156.78-43.29-43.29-113.48-43.29-156.78,0-43.29,43.29-43.29,113.48,0,156.78ZM523.56,346.86c24.05-24.05,63.05-24.05,87.1,0,24.05,24.05,24.05,63.05,0,87.1-24.05,24.05-63.05,24.05-87.1,0-24.05-24.05-24.05-63.05,0-87.1Z"/>
      <path class="st4" d="M777.08,361.25l-191.1-227.75c-9.85-11.73-27.9-11.73-37.74,0l-191.1,227.75h-64.32S510.49,101.83,510.49,101.83c29.54-35.2,83.69-35.2,113.23,0l217.68,259.42h-64.32Z"/>
    </g>
  </g>
  <path class="st3" d="M1340.11,470.76l-48.85-40.99V79.21s-12.8,0-12.8,0v339.82s0,16.7,0,16.7l53.42,44.83c3.05,2.56,3.05,7.25,0,9.8l-53.42,44.83v16.7s0,338.56,0,338.56h12.8s0-349.3,0-349.3l48.85-40.99c9.14-7.67,9.14-21.73,0-29.4Z"/>
  <g>
    <path class="st2" d="M2310.74,280.13c-103.06,0-194.01,51.81-248.25,130.8-44.86-65.33-114.83-112.06-196-126.27l170.38-202.98h-195.84l-255.38,303.64h.03c-45.13,52.62-72.4,121.01-72.4,195.77,0,166.22,134.75,300.96,300.96,300.96,103.06,0,194.01-51.81,248.25-130.8,54.25,78.99,145.19,130.8,248.25,130.8,166.22,0,300.96-134.75,300.96-300.96s-134.75-300.96-300.96-300.96Z"/>
    <g>
      <path class="st2" d="M2310.74,937.78c-93.22,0-181.16-35.61-248.03-100.35-66.66,64.74-154.76,100.35-248.47,100.35-196.68,0-356.7-160.01-356.7-356.69,0-84.71,31.73-168.51,89.35-235.97L1815.05,25.94h341.36l-193.67,230.73c36.93,16.93,70.46,39.87,99.76,68.28,66.9-64.88,154.92-100.56,248.25-100.56,196.68,0,356.69,160.01,356.69,356.69s-160.01,356.69-356.69,356.69ZM2062.7,827.66l2.45,2.42c65.86,64.96,153.08,100.74,245.59,100.74,192.84,0,349.73-156.89,349.73-349.73s-156.89-349.73-349.73-349.73c-92.63,0-179.92,35.85-245.8,100.95l-2.45,2.42-2.45-2.42c-30.37-30.01-65.48-53.95-104.35-71.16l-4.23-1.87,190.01-226.36h-323.17l-266.67,317.42h0c-56.17,66.07-87.1,147.99-87.1,230.76,0,192.84,156.89,349.73,349.73,349.73,93.02,0,180.39-35.77,246.02-100.73l2.45-2.42Z"/>
      <path class="st2" d="M2310.74,912.97c-94.93,0-185.01-40.52-248.03-111.37-62.93,70.84-153.17,111.37-248.47,111.37-183,0-331.88-148.88-331.88-331.88,0-79.74,28.7-156.82,80.81-217.05L1826.62,50.76h276.56l-181.44,216.16c54.38,18.57,102.9,50.8,140.98,93.66,63.02-70.85,153.1-111.37,248.03-111.37,183,0,331.88,148.88,331.88,331.88s-148.88,331.88-331.88,331.88ZM2062.7,786.97l3.63,4.22c61.35,71.3,150.43,112.19,244.41,112.19,177.72,0,322.3-144.58,322.3-322.3s-144.58-322.3-322.3-322.3c-93.98,0-183.06,40.89-244.41,112.19l-3.63,4.22-3.63-4.23c-38.99-45.38-89.82-78.98-147.01-97.16l-6.81-2.17,177.37-211.31h-251.55l-260.64,309.94c-50.62,58.49-78.5,133.36-78.5,210.81,0,177.72,144.58,322.3,322.3,322.3,94.35,0,183.59-40.89,244.83-112.18l3.63-4.23Z"/>
    </g>
    <path class="st1" d="M2104.8,647.29"/>
    <g>
      <polygon class="st0" points="1759.65 331.91 1767.4 336.1 1771.66 327.82 1763.91 323.21 1759.49 330.96 1752.24 326.65 1747.33 335.07 1755.61 339.55 1759.65 331.91"/>
      <path class="st0" d="M1931.24,417.14c14.6-17.52,27.81-33.17,36.55-44.37l-9.62-3.78c-8.28,12.23-20.72,27.84-32.87,43.75l5.95,4.4Z"/>
      <path class="st0" d="M1797.68,375.59c.74.02,1.52,0,2.33-.06,3.59-.29,15.33-2.37,15.54-17.52-1.66-8.99-7.85-16.55-12.75-21.3l-.97-.94-.87,1.03c-1.51,1.77-2.64,4.2-3.57,7.64l-.21.77.61.52c3.33,2.85,9.22,8.71,11.82,16.41-1.71,2.06-4.63,3.23-8.92,3.57-2.34.18-4.22.03-5.56-.47-1.52-.56-2.28-1.53-2.4-3.05-.05-.66-.01-1.3.14-1.97l.15-.73-2.73-2.34-.72,1.47c-1.6,3.25-1.97,6.86-1.8,8.97.39,4.93,4.04,7.83,9.9,8.02Z"/>
      <polygon class="st0" points="1987.08 432.26 1987.21 423.31 1977.49 423.16 1977.62 432.58 1987.08 432.26"/>
      <path class="st0" d="M1855.27,388.37l11.26,9.14c5.39-2.26,11.44-3.08,16.86-11.09l1.96,1.05s0,0,0,0l1.93,1.03.02-.03c6.69,3.51,14.59,8.23,20.66,11.98,2.98,2.06,9.65,6.08,9.65,6.08l22.7-30.12h0s0,0,0-.01l3.93-5.21,3.4-.88,1.47-11.91-7.76-1.4c-.13.29-.31.64-.47.96-.66,1.12-18.38,30.83-23.92,38.54-7.24-5.88-18.72-12.67-24.64-16.04l.04-.07-3.87-2.07c1.69-3.97,4.76-12.06,5.24-21.32l-10.68,1.89c1.51,7.94.94,15.82-1.02,22.72-4.94,3.84-9.73,5.66-14.01,5.85-3.02.34-8.33-.44-11.74-1.03l-1.03,1.94Z"/>
      <polygon class="st0" points="1705.62 345.95 1696.9 343.92 1694.68 353.39 1703.92 355.26 1705.62 345.95"/>
      <path class="st0" d="M1588.87,571.58c-.12,3.21-1.69,6.11-4.22,7.77l-1.03.68,4.9,10.7.34-.39c3.78-4.31,6.71-6.76,10.04-8.38,4.66-.32,9.01,1.25,12.65,4.58,5.01,4.57,7.91,11.79,7.95,19.81v1.7s3.38-.86,3.38-.86l.28-.41c1.79-2.6,3.15-6.73,4.05-12.29l.05-.29-.08-.28c-3.42-12.04-13.69-18.67-28.55-17.99-.87.04-1.59.22-2.41.31,0,0-.02-.01-.02-.02.42-1.24.73-2.87.77-4.24.11-3.05-.93-5.77-2.91-7.87.31-.01.58-.07.88-.1-.12.03-.2.05-.2.05,0,0,13.45.58,17.41-12.84,3.96-13.41,3.73-16.21,7.56-32.31,2.44-10.28,3.58-14.7,3.24-19.04,3.82-2.83,7.81-8.19,11.86-16.09l-3.15-2.55c1.5-.02,3.6-.57,4.74-1.7.56-.58,1.04-1.44,1.35-1.88,4.43-6.44,6.22-11.16,5.61-14.94h2.87s.33-.24.33-.24c1.75-1.18,5.75-5.88,5.9-6.05l1.74-2.04c2.97-3.48,4.25-6.76,3.9-10.02-.33-3.15-2.19-6.12-5.66-9.09l-23.33-22.01-.33-3.5-11.53-3.33-2.6,7.44,32.54,27.55c1.66,1.42,3.79,3.33,3.79,3.33,0,0-.97,1.33-2.42,3.04-1.01,1.33-2.31,2.72-2.64,3.13-2.55,3.18-3.65,4.61-5.45,6.36-.2-.19-.41-.39-.62-.58l-13.1-12-3.17,7.91,10.44,9.53c.56.52,1.71,1.55,1.71,1.55-.5,1.51-1.86,3.85-3.66,6.78-.94,1.75-3.25,4.39-7.59,3.97l-8.98-.9c-6.2-.77-10.99,1.39-13.17,5.93-3.75,7.86,3.04,17.82,11.49,21.9v.05s1.39.52,1.39.52c0,0-7.04,27.57-10.06,42.16,0,0-2.36,9.72-7.39,11.74-6.75,2.71-14.67.2-15.93-.24l-.17-.09-.02.02s-.06-.02-.06-.02c0,0,.04.03.04.04l-1.29,1.18-.2,5.9.88.34c5.46,2.09,8.03,4.91,7.91,8.61ZM1609.45,483.52c.65-1.37,3.23-1.66,6.42-1.66.71,0,3.15.15,4.08.25l5.71.15c.27.04.56.07.84.1-3.13,5.83-6.28,9.94-9.39,12.24-5.28-3.98-9.15-7.98-7.67-11.09Z"/>
      <path class="st0" d="M1582.62,659.42c5.47-1.42,8.22-4.9,8.77-13.97l.44-5.14c.5-6.46,1.38-8.07,3.89-8.73,3.57-.93,5.83,2.46,6.79,6.11.51,1.98.78,4.26.67,6.64l-6.4,3.77,1.19,4.56,12.15-3.18c-.43-5.08-.85-8.86-1.88-12.82-2.76-10.56-8.97-16-17.7-13.72-5.93,1.55-8.17,5.38-8.76,14.62l-.49,5.25c-.42,5.87-1.28,7.23-3.41,7.78-3.12.81-5.94-1.29-7.32-6.61-.73-2.81-.78-6.7.12-10.1l6.62-1.72-1.25-4.79-11.57.74c-1.5,5.75-1.29,12.19.22,17.96,2.72,10.41,9.87,15.44,17.93,13.34Z"/>
      <polygon class="st0" points="1624.15 577.79 1630.71 571.15 1624.39 565.14 1630.46 558.87 1623.67 552.41 1617.13 558.63 1623.43 565.13 1617.35 570.9 1624.15 577.79"/>
      <polygon class="st0" points="1607.32 453.94 1616.47 451.76 1614.39 443.37 1622.94 441.34 1620.6 432.32 1611.75 434.06 1613.63 442.77 1605.36 444.4 1607.32 453.94"/>
      <path class="st0" d="M1672.67,433.43c-15.65-16.58-29.62-31.56-39.71-41.57l-4.89,9.1c11.16,9.67,25.18,23.88,39.53,37.84l5.07-5.38Z"/>
      <polygon class="st0" points="1578.7 584.42 1571.78 577.96 1565.37 584.19 1572.13 591.19 1578.7 584.42"/>
      <path class="st0" d="M2489.28,455.26c2.28,3.1,4.85,5.39,7.83,7.31l6.63.66,8.15-6,3.29,2.07,3.41-2.52-10.76-14.6-3.41,2.51,2.68,4.17-9.29,6.85c-.57-.66-1.04-1.29-1.55-1.98-5.5-7.46-4.01-16.16,3.95-22.03,7.46-5.49,15.58-4.66,20.52,2.04,1.3,1.77,2.37,3.61,2.86,5.2l-5.17,5.95,2.84,3.86,10.82-7.96c-1.18-3.04-3.51-7.27-6.07-10.75-8.8-11.95-21.84-14.43-33.09-6.14-10.49,7.73-11.91,20.1-3.63,31.35Z"/>
      <polygon class="st0" points="2445.35 400.99 2441.14 399.14 2438.38 402.36 2450.19 412.48 2452.94 409.26 2449.49 405.68 2464.36 388.33 2464.31 424.59 2469.02 428.62 2493.09 400.55 2497.23 402.23 2499.98 399.01 2488.18 388.9 2485.42 392.11 2488.99 395.79 2474.12 413.14 2474.17 376.89 2465.65 369.58 2462.89 372.8 2466.4 376.43 2445.35 400.99"/>
      <polygon class="st0" points="2431.7 398.92 2433.82 395.25 2429.49 392.39 2445.66 364.37 2450.29 365.32 2452.41 361.65 2435.2 351.72 2433.09 355.39 2437.34 358.21 2421.17 386.22 2416.62 385.32 2414.5 388.99 2431.7 398.92"/>
      <polygon class="st0" points="2548.62 542.82 2531.54 532.97 2529.81 528.92 2525.61 529.48 2527.75 545.52 2531.95 544.95 2531.68 539.92 2544.54 546.68 2533.77 556.76 2532.74 551.43 2528.53 551.99 2531.37 573.24 2535.57 572.68 2536.31 568.07 2551.38 554.02 2567.6 563.34 2569.33 567.39 2573.53 566.82 2571.39 550.79 2567.19 551.35 2567.46 556.38 2555.46 550.14 2565.45 540.73 2566.45 545.82 2570.66 545.26 2567.87 524.41 2563.67 524.96 2562.92 529.5 2548.62 542.82"/>
      <polygon class="st0" points="2518.34 492.4 2515.52 488.73 2511.52 490.17 2523.93 524.59 2535.3 520.49 2533.68 515.98 2527.22 516.81 2521.9 502.04 2534.01 497.68 2537.39 507.06 2534.14 509.39 2535.58 513.38 2548.13 508.86 2546.69 504.87 2542.7 505.14 2539.32 495.76 2551.28 491.45 2556.05 504.67 2550.67 508.28 2552.3 512.78 2563.52 508.74 2551.39 475.06 2547.4 476.5 2548.83 481.4 2518.34 492.4"/>
      <polygon class="st0" points="2364.07 357.38 2359.33 356.75 2357.08 362.86 2341.52 360.79 2343.22 348.02 2353.11 349.34 2353.68 353.3 2357.89 353.86 2359.65 340.63 2355.45 340.07 2353.85 343.74 2343.97 342.42 2345.65 329.81 2359.59 331.67 2360.31 338.1 2365.05 338.74 2366.64 326.9 2331.14 322.18 2330.58 326.37 2335.6 327.36 2331.31 359.51 2326.77 360.33 2326.2 364.53 2362.48 369.37 2364.07 357.38"/>
      <polygon class="st0" points="2125.71 701.91 2135.08 703.18 2136.69 694.38 2127.13 692.6 2125.71 701.91"/>
      <polygon class="st0" points="2106.45 435.37 2131.16 456.09 2129.37 460.43 2132.62 463.15 2142.61 451.24 2139.35 448.52 2135.82 452.01 2115.79 435.21 2141.1 439.85 2144.27 436.06 2134.93 411.52 2154.6 428.02 2152.47 432.88 2155.71 435.6 2168.88 419.91 2165.63 417.18 2162.11 420.89 2137.16 399.97 2139.01 395.79 2135.77 393.07 2126.54 404.07 2136.31 429.06 2109.69 424.16 2099.56 436.25 2102.8 438.98 2106.45 435.37"/>
      <polygon class="st0" points="2189.01 745.29 2179.28 745.77 2180.04 755.15 2188.65 754.37 2189.36 763.14 2198.63 762.2 2198.26 753.18 2189.36 753.72 2189.01 745.29"/>
      <polygon class="st0" points="2081.51 481.82 2110.69 495.99 2110.04 500.57 2113.86 502.42 2129.86 469.5 2118.97 464.21 2116.88 468.52 2121.99 472.57 2115.12 486.71 2103.54 481.07 2107.9 472.1 2111.84 472.79 2113.69 468.98 2101.68 463.14 2099.82 466.96 2102.8 469.62 2098.44 478.6 2087 473.04 2093.15 460.39 2099.48 461.72 2101.58 457.41 2090.84 452.2 2075.19 484.42 2079 486.27 2081.51 481.82"/>
      <polygon class="st0" points="2316.12 324.37 2315.58 320.17 2299.15 322.3 2299.69 326.5 2306.15 326.22 2302.03 356.04 2289.15 325.18 2279.38 328.59 2275.32 359.43 2263.16 331.64 2270.2 330.33 2269.65 326.14 2248.24 328.91 2248.79 333.12 2252.69 333.88 2268.83 369.22 2279.34 367.85 2283.97 339.47 2295.38 365.77 2305.89 364.4 2312.48 326.19 2316.12 324.37"/>
      <polygon class="st0" points="2346.25 831.68 2344.05 799.37 2348.34 797.67 2348.05 793.44 2311.59 795.92 2312.41 807.97 2317.19 807.65 2318.16 801.21 2333.81 800.15 2334.68 812.98 2324.74 813.65 2323.39 809.9 2319.16 810.19 2320.06 823.48 2324.3 823.2 2325.13 819.29 2335.06 818.61 2335.93 831.29 2321.92 832.24 2319.93 826.08 2315.16 826.41 2315.97 838.3 2351.64 835.88 2351.36 831.65 2346.25 831.68"/>
      <polygon class="st0" points="2040.35 696.55 2028.8 690.69 2032.96 682.5 2037.24 683.27 2039.16 679.49 2027.26 673.45 2025.34 677.23 2028.55 680.26 2024.4 688.45 2011.51 681.91 2017.63 669.88 2023.9 671.39 2026.07 667.12 2015.43 661.72 1999.52 693.08 2003.3 694.99 2005.89 690.59 2034.72 705.22 2034.06 709.82 2037.84 711.74 2047.5 692.7 2043.72 690.78 2040.35 696.55"/>
      <polygon class="st0" points="1615.12 674.54 1618.29 678.01 1622.17 676.29 1614.08 658.15 1610.22 659.87 1612.01 664.66 1582.46 677.82 1579.31 674.41 1575.43 676.13 1583.51 694.28 1587.39 692.55 1585.57 687.7 1615.12 674.54"/>
      <path class="st0" d="M2369.01,787.47c-3.63,1.01-6.62,2.57-9.38,4.65l-2.85,6.74,1.54,1.44c3.13-2.5,6.4-4.22,9.8-5.17,8.77-2.44,15.1,1.58,17.79,11.26,2.48,8.92-.66,16.06-8,18.1-1.97.55-3.84.83-5.4.77l-3.83-7.32-4.61,1.29,3.7,13.3c3.16-.07,7.78-.7,11.79-1.81,13.52-3.76,19.95-14.91,16.21-28.37-3.48-12.54-13.99-18.42-26.77-14.87Z"/>
      <polygon class="st0" points="2449.72 795.14 2434.47 766.63 2437.72 763.38 2435.73 759.65 2422.02 766.97 2424.02 770.71 2428.6 768.79 2439.36 788.92 2405.62 775.74 2400.15 778.66 2417.58 811.25 2414.51 814.49 2416.5 818.22 2430.21 810.9 2428.21 807.16 2423.49 809.16 2412.72 789.02 2446.46 802.21 2456.36 796.92 2454.37 793.18 2449.72 795.14"/>
      <polygon class="st0" points="2546.26 684.42 2517.34 669.65 2518.15 665.14 2514.38 663.21 2498.9 693.53 2509.73 699.06 2511.65 695.28 2506.57 691.1 2512.81 678.87 2540.54 693.03 2539.87 697.62 2543.65 699.55 2552.66 681.87 2548.89 679.95 2546.26 684.42"/>
      <path class="st0" d="M2551.58,579.25c-12.99-.93-22.05,7-22.99,20.22-.26,3.76.21,7.09,1.23,10.39l5.39,4.94,1.87-.96c-1.3-3.79-1.82-7.44-1.57-10.97.65-9.07,6.56-13.69,16.57-12.97,9.24.66,14.91,6.02,14.37,13.61-.14,2.04-.51,3.9-1.09,5.35l-8.18,1.15-.34,4.77,13.77.99c1.01-3,1.96-7.57,2.26-11.72,1-14-7.35-23.8-21.27-24.8Z"/>
      <polygon class="st0" points="2562.7 635.52 2531.49 626.78 2531.32 622.18 2527.23 621.03 2517.37 656.25 2529.02 659.51 2530.3 654.89 2524.56 651.82 2528.79 636.7 2541.18 640.18 2538.5 649.77 2534.5 649.8 2533.36 653.88 2546.21 657.47 2547.35 653.39 2543.94 651.3 2546.63 641.7 2558.87 645.13 2555.08 658.66 2548.62 658.48 2547.32 663.08 2558.81 666.3 2568.46 631.84 2564.38 630.69 2562.7 635.52"/>
      <polygon class="st0" points="2490.67 763.13 2469.51 738.56 2471.92 734.63 2469.16 731.42 2441.44 755.28 2449.32 764.44 2452.95 761.31 2449.88 755.57 2461.77 745.33 2470.17 755.09 2462.62 761.6 2459.28 759.4 2456.06 762.17 2464.77 772.27 2467.98 769.51 2466.31 765.88 2473.86 759.37 2482.16 769 2471.52 778.18 2466.23 774.44 2462.6 777.56 2470.38 786.61 2497.51 763.25 2494.74 760.04 2490.67 763.13"/>
      <polygon class="st0" points="2522.3 726.29 2496.68 706.29 2498.33 702 2494.99 699.4 2474.04 726.25 2483.63 733.73 2486.23 730.39 2482.03 725.32 2490.48 714.49 2515.04 733.66 2513.52 738.05 2516.85 740.65 2529.08 725 2525.74 722.4 2522.3 726.29"/>
      <path class="st0" d="M2140.98,716.78l-8.12-7.52c-3.1,3.37-5.34,5.59-7.72,7.73-2.01,1.82-13.12,9.9-15.99,9.83-2.7-1.5-6.64-3.84-9.51-7.76-5.35-7.32-1.75-16.54,3.04-19.36,2.23-1.31,4.49-2.1,8.02-2.73l-.22-2.23c-4.65.28-7.48,0-12.36.93-8.5,5-14.71,16.06-6.87,27.33,4.34,6.23,12.44,11.46,17.99,11.64,3.95.22,10.3-.68,18.78-7.26,3.9-3.02,8.16-6.71,12.95-10.61Z"/>
      <polygon class="st0" points="1719.57 429.43 1711.43 427.44 1709.3 436.87 1718.43 438.81 1720.09 430.24 1728.63 431.97 1730.41 422.76 1721.64 420.62 1719.57 429.43"/>
      <polygon class="st0" points="1704.86 770.17 1709.08 773.36 1692.19 783.1 1693.46 763.53 1698.73 766.36 1700.97 762.75 1682.11 751 1679.87 754.6 1683.03 758.15 1682.39 784.58 1677.86 791.84 1673.34 790.79 1671.1 794.38 1688.23 805.05 1690.47 801.46 1686.31 798.49 1692.04 789.29 1714.19 777.64 1718.93 778.93 1721.17 775.33 1707.1 766.58 1704.86 770.17"/>
      <polygon class="st0" points="1641.75 717.77 1645.11 720.63 1648.62 718.25 1639.55 704.85 1636.03 707.22 1638.53 711.61 1624.99 711.38 1629.74 698.48 1632.91 702.61 1636.42 700.22 1624.62 682.79 1621.1 685.17 1622.46 689.56 1615.6 707.87 1595.91 706.68 1592.56 703.82 1589.04 706.2 1598.12 719.6 1601.63 717.23 1599.14 712.84 1613.68 713.16 1608.52 726.99 1605.22 722.67 1601.7 725.05 1613.73 742.81 1617.24 740.43 1615.84 735.98 1623.07 716.67 1641.75 717.77"/>
      <polygon class="st0" points="1762.74 793.5 1767.69 795.35 1754.25 809.49 1749.92 790.37 1755.78 791.58 1756.9 787.49 1735.48 781.58 1734.35 785.67 1738.39 788.16 1745.28 813.69 1743 821.95 1738.36 822.21 1737.23 826.31 1756.69 831.67 1757.82 827.58 1752.99 825.92 1755.86 815.47 1773.8 798.02 1778.72 797.91 1779.84 793.82 1763.87 789.41 1762.74 793.5"/>
      <polygon class="st0" points="1652.51 722.47 1644.21 731.04 1647.26 733.99 1652.7 730.5 1658.06 735.69 1636.34 758.15 1632.1 756.1 1629.15 759.15 1643.03 772.57 1645.98 769.52 1642.92 766.13 1665.45 742.83 1670.75 747.96 1667.46 753.51 1670.51 756.46 1678.8 747.88 1652.51 722.47"/>
      <polygon class="st0" points="1841.28 395.28 1848.56 389.36 1843.22 382.08 1836.02 387.46 1831.03 380.64 1823.34 386.51 1829.09 393.86 1835.8 388.41 1841.28 395.28"/>
      <path class="st0" d="M1951.97,768.88l-5,1.32c-6.25,1.71-8.06,1.42-9.52-.72-2.09-3.04.34-6.32,3.45-8.44,1.69-1.16,3.74-2.18,6.02-2.89l5.71,4.75,3.89-2.67-7.09-10.36c-4.63,2.12-8.05,3.8-11.42,6.1-9.01,6.17-12.03,13.84-6.94,21.29,3.46,5.06,7.83,5.88,16.72,3.31l5.1-1.3c5.67-1.59,7.24-1.23,8.48.58,1.81,2.66.79,6.02-3.75,9.12-2.4,1.64-6.04,2.99-9.55,3.29l-3.85-5.64-4.09,2.79,4.62,10.64c5.91-.53,11.9-2.9,16.82-6.27,8.88-6.07,11.2-14.5,6.5-21.37-3.18-4.67-7.38-6.07-16.1-3.53Z"/>
      <path class="st0" d="M1834.88,374.42l8.9,1.39c1.55.3,4.57.47,5.84.47,7.67,0,10.04-4.68,11.65-9.38,1.13-2.76,3.15-13.14,2.78-22.88l-10.63.82.07,1.22c.57,9.99.26,19.79-.17,22.01,0,0-16-1.73-17.49-1.95-1.99-.28-3.23-.79-3.89-1.53-.69-.77-.94-2.13-.78-4.28l3.19-37.66-8.3,1.1-2.87,35.99c-.59,9.61.97,13.02,11.72,14.67Z"/>
      <polygon class="st0" points="1813.99 801.4 1815.23 807.75 1820 808.01 1820.63 796.09 1784.9 794.21 1784.67 798.44 1789.76 799.02 1788.05 831.39 1783.58 832.56 1783.36 836.8 1819.88 838.72 1820.52 826.66 1815.74 826.4 1813.99 832.68 1798.32 831.85 1799 819 1808.95 819.52 1809.84 823.42 1814.08 823.64 1814.78 810.32 1810.54 810.1 1809.25 813.88 1799.29 813.35 1799.96 800.66 1813.99 801.4"/>
      <path class="st0" d="M1986.04,439.65c-2.92,3.53-5.04,5.86-7.31,8.11-1.92,1.92-12.59,10.56-15.46,10.64-2.78-1.35-6.83-3.5-9.89-7.26-5.72-7.04-2.59-16.43,2.04-19.49,2.16-1.42,4.37-2.33,7.87-3.14l-.34-2.21c-4.63.52-7.47.38-12.3,1.57-8.23,5.43-13.87,16.79-5.46,27.65,4.65,6,13.02,10.81,18.57,10.7,3.06.01,7.53-.76,13.16-4.33,2.85,4.17,13.01,19.06,15.33,22.48,0,0,4.21,5.92,8.48,4.7,1.28,6.11,4.5,13.92,8.33,20.16l.27.43,2.13,3.27c4.4-1.77,11.51-5.07,13.99-6.59,8.2-5.03,11.13-13.11,7.13-19.63-2.14-3.47-7.16-7.21-18.84-5.36l-5.12.79c-2.89.45-4.73.12-6.26-1.15-4.2-5.46-16.02-20.89-18.45-24.56,3.27-2.9,6.73-6.16,10.63-9.68l-8.5-7.09ZM2015.39,489.43c4.85-.8,7.92-.21,9.11,1.74.86,1.4.93,2.79.21,4.23-.8,1.61-2.53,3.24-5.13,4.83-1.31.81-2.8,1.58-4.35,2.27-2.22-3.8-3.89-7.83-5.07-12.26l5.23-.81Z"/>
      <path class="st0" d="M1783.59,363.52c-1.52-6.25-8.46-13.26-20.63-20.86l-1.23-.77-3.81,7.6,2.6,1.43c-4.71,7.47-6.33,13.86-4.96,19.52,1.47,6.05,5.92,9.42,12.03,9.42,1.48,0,3.04-.19,4.69-.6,8.69-2.12,13.14-8.3,11.32-15.75ZM1770.53,371.34c-4.26,1.04-6.85-.19-7.7-3.66-.75-3.07.61-7.6,3.82-12.85,6.92,4.85,8.93,8.01,9.37,9.84,1.11,4.55-3.47,6.18-5.49,6.67Z"/>
      <path class="st0" d="M1731.72,372.99c-3.57-6.04-7.79-10.49-12.18-12.86-4.53-2.44-9.12-2.54-12.93-.28-2.6,1.54-4.54,4.37-5.46,7.97-1.23,4.79-.5,10.12,1.95,14.24,4.95,8.38,13.49,6.89,24.8,1.66-.24.94-1.22,1.98-3.93,3.58l-.9.54c-5.01,2.97-9.67,4.95-15.6,6.62l-1.65.47,4.03,6.82.93-.19c2.65-.55,5.34-1.33,8.2-2.4,1.36,1.36,2.23,2.41,2.79,3.34,1.72,2.91-1.42,7.41-8,11.78-1.13.71-3.64,1.66-4.72,2.19-8.13,4.02-16.59-1.1-18.56-6.3-.91-2.42-1.3-4.78-1.32-8.37l-2.23-.16c-.52,4.63-1.28,8.45-1.19,13.41.34.91.79,1.77,1.25,2.62.03.07-.02.1.02.17.07.13.16.25.24.37.11.19.24.37.36.56.43.67.9,1.32,1.41,1.96.27.33.53.66.82.98.67.75,1.4,1.44,2.18,2.08.06.05.12.11.19.16,1.72,1.37,3.73,2.42,6.07,2.97.3.08.59.16.9.22.25.04.52.05.78.08,3.47.54,7.34.13,11.54-1.83,2.29-1.07,6.33-3.44,8.36-5.17h0c3.71-2.73,6.52-5.7,8.22-8.75,2.43-4.35,2.54-8.63.31-12.38-.69-1.18-1.63-2.31-2.54-3.31.21-.12.41-.24.61-.36,5.17-3.06,7.86-5.93,8.72-9.3.9-3.53-.16-7.59-3.46-13.15ZM1709.49,377.92c-1.1-1.86-1.59-4.16-1.34-6.31.23-1.97,1.06-3.55,2.23-4.25.73-.44,1.55-.65,2.42-.65,3.61,0,8.17,3.61,12.09,9.76-10.4,4.93-13.72,4.15-15.4,1.45Z"/>
      <polygon class="st0" points="2076.57 527.62 2065.81 516.46 2062.62 517.77 2073.46 528.9 2076.57 527.62"/>
      <polygon class="st0" points="2082.14 524.88 2071.37 513.72 2068.22 515.1 2079.02 526.15 2082.14 524.88"/>
      <path class="st0" d="M2086.46,660.97c-2.45-5.88.51-9.84,3.44-10.86,2.82-.99,5.89.16,7.53,3.69.72,1.56,1.43,3.62,2.1,7.02l7.19-3.33c-.55-3.86-1.21-6.52-1.99-8.21-3.21-6.92-10.81-10.8-17.38-7.75-2.78,1.29-5.4,4.56-6.38,7.58l-2.57-5.56s0,0,0,0l-3.13-6.77-3.14-6.78-3.13-6.76s0,0,0,0l-.29-.62c-1.6-3.46-1.07-5.35,2.52-7.02l28.34-13.13-4.67-6.89-27.12,12.56c-8.61,3.99-11.32,9.69-7.65,17.62l.6,1.29s0,0,0,0l3.13,6.76,3.14,6.78,3.14,6.77h0s11.24,24.27,11.24,24.27l8.87-2.54-3.77-8.14Z"/>
      <path class="st0" d="M2074.92,582.07c-1.73-3.88-6.2-8.44-17.57-8.19l-4.98.09c-2.81.05-4.54-.55-5.89-2.08-.69-1.21-2.05-3.57-3.3-5.76l-1.36-2.53-3.35-6.92-3.1-6.02s0,0,0,0l-.29-.62c-1.6-3.46-1.07-5.34,2.52-7.01l28.35-13.13-4.67-6.9-27.12,12.56c-8.61,3.99-11.32,9.69-7.65,17.62l.59,1.28s0,0,0,0l3.14,6.78,3.26,6.62,2.79,5.65s0,0,0,0c.08.17.15.32.21.44,0,0,3.49,6.7,7.69,6.04.67,6.47,3.04,14.97,6.14,21.94l.22.48,1.74,3.67c4.38-1.2,11.49-3.59,14.01-4.81,8.32-4.02,11.87-11.92,8.63-19.21ZM2061.21,594.16c-1.33.65-2.83,1.23-4.37,1.72-1.78-4.23-3.01-8.61-3.73-13.35l5.08-.09c4.72-.13,7.6.91,8.57,3.08.7,1.57.63,3-.19,4.39-.92,1.54-2.72,2.98-5.36,4.25Z"/>
      <path class="st0" d="M2012.04,712.02c-10.1-8.22-22.05-6.83-30.37,3.39-8.36,10.28-6.76,22.59,4.06,31.41,10.09,8.22,22.06,6.93,30.42-3.34,8.32-10.22,6.71-22.65-4.11-31.46ZM2011.11,739.37c-4.25,5.23-11.82,4.84-19.18-1.15-7.42-6.05-9.57-13.45-5.31-18.68,4.31-5.3,11.93-4.85,19.23,1.09,7.48,6.09,9.52,13.51,5.26,18.74Z"/>
      <path class="st0" d="M1875.58,826.06l-20.4-34.97-9.38,3.38-7.62,37.69-3.8,2.05.69,4.18,16.5-2.72-.69-4.18-6.45.5,1.58-8.29,14.56-2.4,4.26,7.49-6.29,1.43.69,4.18,21.22-3.49-.69-4.19-4.17-.66ZM1847.09,817.8l2.9-15.2,7.63,13.46-10.53,1.74Z"/>
      <path class="st0" d="M1927.65,807.96l-14.18-9.67c4.49-4.15,5.99-9.35,3.95-14.28-3.08-7.47-9.88-8.91-21.04-4.3l-18.42,7.6,1.62,3.92,4.76-1.63,12.33,29.87-3.49,3.06,1.62,3.92,18.56-7.66-1.62-3.92-5.44,1.82-4.85-11.74,3.7-1.53,15.61,12.31,13.78-5.69-1.62-3.91-5.27,1.83ZM1902.23,799.02l-2.76,1.14-5.5-13.34,4.5-1.86c4.79-1.98,7.87-.88,9.45,2.97,1.89,4.56-.25,8.84-5.69,11.09Z"/>
      <path class="st0" d="M2156.03,382.81l18.86,26.26-2.7,3.77,2.47,3.44,17.14-12.31-2.47-3.44-5.39,3.39-6.18-8.61,2.1-1.51c10.84-7.78,13.69-16.98,8.75-23.87-4.99-6.94-12.75-6.98-22.63.12l-16.7,11.99,2.48,3.44,4.26-2.67ZM2168.72,375.05c4.59-3.3,8.59-2.7,11.71,1.63,2.7,3.76,1.69,8.55-3.86,12.53l-2.1,1.52-9.38-13.07,3.64-2.61Z"/>
      <path class="st0" d="M2231.92,382.78c12.14-5.14,16.54-16.89,11.09-29.75-5.08-11.99-16.3-16.36-28.44-11.22-12.21,5.17-16.56,16.82-11.12,29.68,5.08,11.99,16.27,16.46,28.48,11.29ZM2217,347.76c6.29-2.66,12.82,1.3,16.49,9.97,3.76,8.89,2.09,16.41-4.11,19.04-6.22,2.63-12.72-1.26-16.43-10-3.73-8.81-2.16-16.38,4.04-19.02Z"/>
      <path class="st0" d="M2389.82,373.77l-5.25-2.32,4.33-11.96,3.76,1.36,3.24,19.64,14.03,5.08,1.44-3.98-5.13-2.2-3.97-16.72c6.11-.04,10.74-2.88,12.55-7.9,2.76-7.6-1.29-13.25-12.67-17.36l-18.76-6.8-1.44,3.99,4.62,2.01-11.02,30.43-4.64-.09-1.44,3.99,18.9,6.85,1.44-3.99ZM2395.58,341.02l4.57,1.66c4.88,1.76,6.42,4.66,5,8.58-1.69,4.65-6.15,6.38-11.69,4.37l-2.8-1.01,4.92-13.59Z"/>
      <path class="st0" d="M2266.5,824.66l-5.25-1.45c-3.25-.89-6.27-1.93-8.8-3.02,2.13-3.11,4.2-7.11,6.49-11.83l-10.01-5.69c-2.55,5.72-4.55,10.13-6.76,14.58-1.57.06-3.06-.16-5.41-.82-1.81-.5-3.57-1.18-5.12-1.9,1.58-2.19,3.2-4.86,4.92-8.28l-9.36-5.21c-2.14,4.18-3.79,7.71-5.32,10.79-1.06-.42-6.08-2.82-10.95-5.29-.17-.09-15.54-8.72-24.99-15.34l-5.05-3.67s-.04,0-.06-.02c-4.37-3.28-6.79-5.51-8.54-7.68-.46-.61-1.02-1.26-1.37-1.84.22-.17.44-.34.67-.52l13.85-11.12-7.33-4.34-11.01,8.87c-1.2.93-2.93,1.19-6.88-1.86-2.36-2.16-6.15-6.76-9.39-10.88,11.66-9.25,15.49-19.45,9.97-26.64-2.15-2.81-6.02-4.49-10.63-4.6-4.62-.1-8.99,1.28-12.3,3.82-6.61,5.08-6.3,14.22.79,25.24.07.08.17.22.24.31.24.41.51.83.77,1.25-4.42.32-10.1-.56-13.45-2.12-2.72-1.18-5.67-2.89-9.01-5.2l-1.78,1.35,7.04,12.99c6.86.57,15.22-.38,20.34-2.41,3.6,4.82,7.59,9.08,9.16,10.7.22.25.42.46.54.57.04.04.06.05.1.09.02.02.1.1.1.1h.01c5.56,5.19,8.53,6.45,12.28,6.45h.13l-.42,2.84.38.82h0c.71,1.38,1.3,2.21,2.1,3.07h0s.04.05.04.05c.04.04.09.1.13.14.37.4,1.47,1.52,3.46,3.27.1.1.16.15.26.25.24.22.68.67,1.12,1.04,6.8,6.36,19.2,15.83,40.56,25.78l-.03-.04c5.63,2.99,11.6,5.19,15.28,1.52l1.56,6.36c1.79,1.27,3.49,2.13,5.57,2.71,4.26,1.17,8.74.08,12.98-3.33l1.7,6.21c2.96,1.6,6.29,2.91,10.19,3.99l8.77,2.42c2.31-4.13,4.29-9.22,5.67-14.19,1.08-3.89,2.3-11.15,3.13-18.71l-11.27,1.12c.38,8.13.27,11.86.19,19.27ZM2146.12,752.33c-1.26-1.83-2.23-3.55-2.98-5.15v.03c-.65-1.24-1.08-2.61-1.39-3.93-.01-.06-.03-.13-.04-.19-.69-3.01-.72-5.68-.72-5.68,4.99-2.07,8.47-2.07,8.47-2.07,1.76,0,3.3.53,4.14,1.62,1.59,2.07.87,4.78-.02,6.69-1.32,2.83-3.95,5.9-7.45,8.7Z"/>
    </g>
    <path class="st5" d="M2059.06,601.99"/>
    <path class="st6" d="M1652.68,456.13"/>
  </g>
</svg>