<?xml version="1.0" encoding="UTF-8"?>
<svg xmlns="http://www.w3.org/2000/svg" version="1.1" viewBox="0 0 2181.91 869.27">
  <!-- Generator: Adobe Illustrator 29.8.1, SVG Export Plug-In . SVG Version: 2.1.1 Build 2)  -->
  <defs>
    <style>
      .st0, .st1 {
        fill: #d6d3d2;
      }

      .st2 {
        fill: #00629d;
      }

      .st3 {
        fill: none;
        stroke: #ff009b;
        stroke-miterlimit: 10;
      }

      .st4 {
        isolation: isolate;
      }

      .st5, .st1 {
        mix-blend-mode: multiply;
      }

      .st6 {
        display: none;
      }
    </style>
  </defs>
  <g class="st4">
    <g id="Logo">
      <g>
        <g>
          <path class="st2" d="M949.38,546.49l-27.9-68.33h-8.63l-23.04,60.92c-9.84,26.15-13.21,28.57-18.61,28.97l-1.48.14v1.62s30.33,0,30.33,0v-1.62s-2.83-.14-2.83-.14c-6.19-.26-8.49-5.23-8.49-10.48,0-4.07,2.78-11.76,4.93-17.41l1.66-4.49h29.08l4.48,11.75c6.34,16.85,7.01,20.36-.13,20.62l-3.51.14v1.62s40.03,0,40.03,0v-1.62l-1.08-.14c-5.25-.66-7.01-2.29-14.83-21.56ZM922.74,531.44h-25.84l12.8-34.53,13.04,34.53Z"/>
          <path class="st2" d="M994.95,550.14v-71.16h-26.14v1.6s2.7.14,2.7.14c4.45.14,5.53.54,5.53,17.93v51.49c0,17.38-1.08,17.78-5.53,17.92l-2.7.14v1.62s34.5,0,34.5,0v-1.62s-2.7-.14-2.7-.14c-4.45-.14-5.67-.54-5.67-17.92Z"/>
          <path class="st2" d="M1049.83,480.59l2.82.14c5.93.28,7.28,1.89,7.28,20.35v46.64c0,18.47-1.35,20.08-7.28,20.35l-2.82.14v1.62s43.79,0,43.79,0v-1.62l-2.82-.14c-9.98-.4-11.46-1.88-11.46-20.35v-19.71h9.43c7.15,0,12.27,3.68,15.77,15l.82,2.96h1.34v-37.46h-1.34l-.82,2.96c-3.1,9.7-8.63,12.3-15.77,12.3h-9.43v-22.69c0-18.19.8-17.85,6.47-17.85h6.61c14.82,0,23.18,4.79,28.97,21.36l1.48,4.59h1.35v-30.19h-74.4v1.6Z"/>
          <path class="st2" d="M1225.86,550.14v-42.6h-26.14v1.63l2.7.13c4.45.28,5.53.54,5.53,17.93v22.92c0,17.38-1.08,17.78-5.53,17.92l-2.7.14v1.62h34.5v-1.62l-2.7-.14c-4.45-.14-5.67-.54-5.67-17.92Z"/>
          <rect class="st2" x="1208.05" y="478.27" width="17.44" height="17.44" transform="translate(12.02 1003.01) rotate(-45)"/>
          <path class="st2" d="M1258.6,517.83c0-4.99,3.5-7.96,9.57-7.96,7.71,0,16.07,4.82,18.89,13.04l1.08,3.23h1.49v-20.21h-1.35c-2.02,2.56-4.17,3.9-5.93,3.9-1.22,0-2.29-.54-3.64-1.08-4.05-1.88-7.15-2.82-10.92-2.82-11.72,0-21.83,7.27-21.83,18.86,0,23.72,34.5,17.53,34.5,33.15,0,6.34-4.85,9.44-12,9.44-10.41,0-20-7.63-22.78-15.08l-1.22-3.23h-1.48v22.5h1.48c2.57-2.83,4.99-4.17,7.28-4.17,1.48,0,2.96.66,4.99,1.34,4.17,2.02,7.67,2.83,11.72,2.83,13.74,0,24.66-7.28,24.66-19.55,0-24.66-34.52-18.29-34.52-34.19Z"/>
          <path class="st2" d="M1364.43,550.14v-22.12c0-15.62-15.23-22.09-30.47-22.09-16.04,0-25.52,7.96-27.34,15.36l19.56,5.63c-2.96-11.75,5.33-16.76,9.98-16.76,5.8,0,10.34,2.63,10.34,12.06v16.85c-5.12-2.29-9.7-3.23-17.25-3.23-15.77,0-25.2,5.93-25.2,17.79,0,11.05,9.7,17.79,22.78,17.79,10.25,0,16.98-4.99,19.95-10.24v8.63h25.88v-1.62l-2.7-.14c-4.45-.14-5.53-.54-5.53-17.92ZM1346.51,556.12c-2.56,5.39-7.81,9.29-12.94,9.29-6.07,0-10.92-3.38-10.92-11.23,0-8.86,5.8-13.5,12-13.5,4.59,0,8.22,1.08,11.86,2.82v12.62Z"/>
          <path class="st2" d="M1186.63,550.14v-22.12c0-15.62-15.23-22.09-30.47-22.09-16.04,0-25.52,7.96-27.34,15.36l19.56,5.63c-2.96-11.75,5.33-16.76,9.98-16.76,5.8,0,10.34,2.63,10.34,12.06v16.85c-5.12-2.29-9.7-3.23-17.25-3.23-15.77,0-25.2,5.93-25.2,17.79,0,11.05,9.7,17.79,22.78,17.79,10.25,0,16.98-4.99,19.95-10.24v8.63h25.88v-1.62l-2.7-.14c-4.45-.14-5.53-.54-5.53-17.92ZM1168.7,556.12c-2.56,5.39-7.81,9.29-12.94,9.29-6.07,0-10.92-3.38-10.92-11.23,0-8.86,5.8-13.5,12-13.5,4.59,0,8.22,1.08,11.86,2.82v12.62Z"/>
          <path class="st2" d="M1403.66,550.14v-71.16h-26.14v1.6l2.7.14c4.45.14,5.53.54,5.53,17.93v51.49c0,17.38-1.08,17.78-5.53,17.92l-2.7.14v1.62h34.5v-1.62l-2.7-.14c-4.45-.14-5.67-.54-5.67-17.92Z"/>
          <path class="st2" d="M1520.53,480.59l2.82.14c6.07.28,7.42,1.89,7.42,20.35v19.99h-42.73v-19.99c0-18.45,1.34-20.07,7.41-20.35l2.83-.14v-1.6s-39.76,0-39.76,0v1.6s2.82.14,2.82.14c5.93.28,7.28,1.89,7.28,20.35v46.64c0,18.47-1.35,20.08-7.28,20.35l-2.82.14v1.62s39.76,0,39.76,0v-1.62s-2.83-.14-2.83-.14c-6.07-.26-7.41-1.88-7.41-20.35v-22.41h42.73v22.41c0,18.47-1.35,20.08-7.42,20.35l-2.82.14v1.62h39.76v-1.62s-2.83-.14-2.83-.14c-5.93-.26-7.27-1.88-7.27-20.35v-46.64c0-18.45,1.34-20.07,7.27-20.35l2.83-.14v-1.6s-39.76,0-39.76,0v1.6Z"/>
          <path class="st2" d="M1602.63,505.94c-21.29,0-33.96,14.68-33.96,32.75s12.68,32.88,33.96,32.88,33.96-14.69,33.96-32.76-12.66-32.87-33.96-32.87ZM1602.63,567.33c-11.72,0-14.56-9.38-14.56-28.52s2.83-28.63,14.56-28.63,14.42,9.37,14.42,28.63c0,19.41-2.82,28.52-14.42,28.52Z"/>
          <path class="st2" d="M1670.03,550.14v-71.16s-26.14,0-26.14,0v1.6s2.7.14,2.7.14c4.45.14,5.53.54,5.53,17.93v51.49c0,17.38-1.08,17.78-5.53,17.92l-2.7.14v1.62s34.5,0,34.5,0v-1.62l-2.7-.14c-4.45-.14-5.67-.54-5.67-17.92Z"/>
          <path class="st2" d="M1749.01,550.14v-71.16h-26.14v1.6s2.7.14,2.7.14c4.45.14,5.53.54,5.53,17.93v8.76c-3.91-1.08-7.82-1.48-11.32-1.48-20.36,0-33.96,13.06-33.96,32.35,0,21.96,15.76,31.53,33.96,31.53h37.46v-1.62l-2.7-.14c-4.31-.14-5.53-.54-5.53-17.92ZM1731.1,565.58h-8.9c-12,0-16.98-10.18-16.98-27.29,0-21.04,4.44-28.01,16.44-28.01,2.97,0,5.93.54,9.44,1.49v53.81Z"/>
          <rect class="st2" x="1771.88" y="478.27" width="17.44" height="17.44" transform="translate(177.17 1401.71) rotate(-45)"/>
          <path class="st2" d="M1789.87,550.14v-42.6h-26.15v1.63l2.7.13c4.45.28,5.53.54,5.53,17.93v22.92c0,17.38-1.08,17.78-5.53,17.92l-2.7.14v1.62h34.5v-1.62l-2.7-.14c-4.44-.14-5.65-.54-5.65-17.92Z"/>
          <path class="st2" d="M1875.05,550.14v-21.44c0-16.17-11.58-22.64-24.8-22.64-11.18,0-16.27,5.32-19.67,10.24v-8.76h-25.88v1.63l2.7.13c4.45.28,5.53.54,5.53,17.93v22.92c0,17.38-1.08,17.78-5.53,17.92l-2.7.14v1.62h34.5v-1.62l-2.7-.14c-4.45-.14-5.67-.54-5.67-17.92v-26.19c1.97-5.82,8.42-13.3,14.89-13.3,7.95,0,11.4,4.71,11.4,14.81v24.67c0,17.38-1.22,17.78-5.53,17.92l-2.7.14v1.62h34.36v-1.62l-2.7-.14c-4.45-.14-5.53-.54-5.53-17.92Z"/>
          <path class="st2" d="M1923.05,507.54c-17.79,0-33.96,9.7-33.96,31.54,0,19.41,13.6,32.35,33.96,32.35,3.77,0,7.41-.28,11.32-1.35v11.47c0,6.81-2.73,14.56-10.35,14.56-6.36,0-13.04-9.69-9.98-19.26l-19.56,5.63c1.12,6.62,10.91,15.36,27.34,15.36,20.22,0,30.47-10.09,30.47-22.09v-48.53c0-17.39,1.22-17.65,5.53-17.93l2.7-.13v-1.63h-37.46ZM1934.37,565.79c-3.51.94-6.34,1.48-9.44,1.48-12,0-16.44-7.02-16.44-28.18,0-17.11,4.98-27.31,17.11-27.31h8.76v54.01Z"/>
          <polygon class="st2" points="1960.19 395.62 1960.19 297.85 1936.13 311.22 1949.7 395.62 1960.19 395.62"/>
          <path class="st2" d="M1511.2,401.79c0-1.51-.05-9.4-.12-20.2l11.44,14.03h113.91c13.15,0,19.05-6.97,21.99-13.41l10.94,13.41h33.28c19.78,0,31.81-6.86,38.31-14.28l11.65,14.28h29.54c13.58,0,19.42-7.43,22.26-14.03l11.45,14.03h14.15c12.19,0,22.06-2.84,29.68-6.86,9.18,4.19,20.72,6.86,32.41,6.86,22.35,0,25.14-16.51,25.29-22.27.16-5.92,2.94-75.51,2.94-75.51l-24.06,13.37s13.8,57.29,14.64,62.69c-4.83,2.13-14.18,3.54-26.13,3.54-3.74,0-7.27-.12-10.61-.36,3.45-4.33,5.17-8.51,5.17-11.39,0-12.97-2.58-32.36-13.42-32.36-13.88,0-25.25,21.36-25.25,35.19,0,2.84,1.09,5.66,3.01,8.34-5.75.44-11.08.58-14.9.58h-22.86c.48-1.63.81-3.05,1.09-4.09,1.48-5.57,8.08-30.63,8.08-30.63l-20.33,11.3,6.78,19.88c-4.83,2.13-11.55,3.54-23.5,3.54h-34.16c2.36-3.77,3.4-7.4,3.4-10.07,0-11.76-7.97-34.05-20.35-34.05-16.98,0-42.17,30.08-50.55,44.12h-16.17c.48-1.63.81-3.05,1.09-4.09,1.48-5.57,8.08-30.63,8.08-30.63l-20.33,11.3,6.78,19.88c-4.83,2.13-11.55,3.54-23.5,3.54h-121.24c-.2-30.81-.53-79.6-.53-79.6l-24.06,13.37,18.97,93.53c-10.76,6.6-27.92,10.92-39.87,10.92-18.37,0-22.31-10.39-22.18-20.93.08-6.38,2.17-11.13,2.17-11.13l-5.19-1.5s-3.9,11.07-3.9,24.91c0,13.84,8.64,28.82,25.32,28.82,40.49,0,49.43-28.29,49.43-34.05ZM1845.58,366.98c5.06-6.7,14.25-12.64,18.64-12.64s10.16,3.83,10.93,14.33c-3.42,2.82-9.13,4.76-15.55,6.08-5.96-1.66-10.71-4.16-14.02-7.77ZM1725.22,354.34c4.39,0,17.22,5.34,17.98,15.83-9.15,7.55-30.13,7.27-41.79,7.27h-20.19c16.4-17.03,29.65-23.11,44-23.11Z"/>
          <polygon class="st2" points="1399.91 395.62 1399.91 297.85 1375.85 311.22 1389.42 395.62 1399.91 395.62"/>
          <path class="st2" d="M1236.04,395.62h30.07c12.19,0,22.06-2.84,29.68-6.86,9.18,4.19,20.72,6.86,32.41,6.86,22.35,0,28.77-16.51,28.92-22.27.16-5.92,2.94-75.51,2.94-75.51l-24.06,13.37s13.8,57.29,14.64,62.69c-4.83,2.13-17.81,3.54-29.77,3.54-3.74,0-7.27-.12-10.61-.36,3.45-4.33,5.17-8.51,5.17-11.39,0-12.97-2.58-32.36-13.42-32.36-13.88,0-25.25,21.36-25.25,35.19,0,2.84,1.09,5.66,3.01,8.34-5.75.44-11.08.58-14.9.58h-26.62l9.67-79.6-24.06,13.37,8.04,84.41h4.14ZM1281.66,366.98c5.06-6.7,14.25-12.64,18.64-12.64s10.16,3.83,10.93,14.33c-3.42,2.82-9.13,4.76-15.55,6.08-5.96-1.66-10.71-4.16-14.02-7.77Z"/>
          <path class="st2" d="M1066.12,381.58l11.46,14.04h32.56c19.64,0,31.63-6.76,38.16-14.12l11.52,14.12h28.09c20.35,0,24.16-16.54,24.85-22.27.66-5.46-2.84-40.58-2.84-40.58l-20.33,11.3,17.69,29.84c-4.83,2.13-11.55,3.54-23.5,3.54h-32.43c2.36-3.77,3.4-7.4,3.4-10.07,0-11.76-7.97-34.05-20.35-34.05-16.98,0-42.17,30.08-50.54,44.12h-16.24c.48-1.63.81-3.05,1.09-4.09,1.48-5.57,8.08-30.63,8.08-30.63l-20.33,11.3,6.78,19.88c-4.83,2.13-11.55,3.54-23.5,3.54h-116.89v-52.08l-19.19,10.66,1.21,5.3c-20.18,9.41-29.75,21.15-29.75,33.7,0,9.68,18.61,17.12,33.17,17.12l4.6-15.73,4.39,19.21h126.58c13.59,0,19.43-7.44,22.27-14.04ZM1132.71,354.34c4.39,0,17.22,5.34,17.98,15.83-9.15,7.55-30.13,7.27-41.79,7.27h-20.19c16.4-17.03,29.65-23.11,44-23.11ZM883.12,367.7c5.83-6.67,17.83-9.5,25.33-10.65l2.99,13.09c-6.64,1.58-20.93,3.97-28.32-2.44Z"/>
          <rect class="st2" x="1855.13" y="301.94" width="17.44" height="17.44" transform="translate(326.24 1408.93) rotate(-45)"/>
          <rect class="st2" x="1805.39" y="409.9" width="17.44" height="17.44" transform="translate(235.35 1405.41) rotate(-45)"/>
          <rect class="st2" x="1200.2" y="409.9" width="17.44" height="17.44" transform="translate(58.07 977.43) rotate(-45)"/>
          <rect class="st2" x="1780.73" y="409.9" width="17.44" height="17.44" transform="translate(228.09 1387.91) rotate(-45)"/>
          <rect class="st2" x="1301.61" y="301.94" width="17.44" height="17.44" transform="translate(164.12 1017.53) rotate(-45)"/>
          <rect class="st2" x="1276.95" y="301.94" width="17.44" height="17.44" transform="translate(156.91 1000.12) rotate(-45)"/>
          <rect class="st2" x="901.82" y="301.94" width="17.44" height="17.44" transform="translate(47.03 734.85) rotate(-45)"/>
          <rect class="st2" x="877.16" y="301.94" width="17.44" height="17.44" transform="translate(39.81 717.42) rotate(-45)"/>
          <rect class="st2" x="1109.75" y="301.94" width="17.44" height="17.44" transform="translate(107.93 881.89) rotate(-45)"/>
        </g>
        <g>
          <path class="st2" d="M417.3,615.09c43.29,43.29,113.49,43.29,156.78,0,43.29-43.29,43.29-113.48,0-156.78-43.29-43.29-113.48-43.29-156.78,0-43.29,43.29-43.29,113.48,0,156.78ZM452.14,493.15c24.05-24.05,63.05-24.05,87.1,0,24.05,24.05,24.05,63.05,0,87.1-24.05,24.05-63.05,24.05-87.1,0-24.05-24.05-24.05-63.05,0-87.1Z"/>
          <path class="st2" d="M705.66,507.54l-191.1-227.75c-9.85-11.73-27.9-11.73-37.74,0l-191.1,227.75h-64.32s217.68-259.42,217.68-259.42c29.54-35.2,83.69-35.2,113.23,0l217.68,259.42h-64.32Z"/>
        </g>
      </g>
    </g>
    <g id="Exclusion_Zone" class="st6">
      <path class="st0" d="M0,0v869.27h2181.91V0H0ZM1960.51,647.56H221.86V221.72h1738.66v425.84Z"/>
      <line class="st3" x1="2181.91" y1="221.72" x2=".56" y2="221.72"/>
      <line class="st3" x1="2181.91" y1="647.56" x2=".56" y2="647.56"/>
      <line class="st3" x1="221.86" y1="2.12" x2="221.86" y2="869.27"/>
      <line class="st3" x1="1960.51" y1="2.12" x2="1960.51" y2="869.27"/>
      <g class="st5">
        <g class="st5">
          <path class="st0" d="M1992.66,189.25c43.29,43.29,113.49,43.29,156.78,0,43.29-43.29,43.29-113.48,0-156.78-43.29-43.29-113.48-43.29-156.78,0-43.29,43.29-43.29,113.48,0,156.78ZM2027.5,67.31c24.05-24.05,63.05-24.05,87.1,0,24.05,24.05,24.05,63.05,0,87.1-24.05,24.05-63.05,24.05-87.1,0-24.05-24.05-24.05-63.05,0-87.1Z"/>
        </g>
        <path class="st1" d="M2102.26,145.31h-18.78l-14.34-23.85-12.43,23.85h-16.87l20.94-36.04-19.67-32.86h18.91l12.94,21.83,11.29-21.83h16.75l-19.67,33.88,20.94,35.02Z"/>
      </g>
      <g class="st5">
        <g class="st5">
          <path class="st0" d="M1992.66,836.8c43.29,43.29,113.49,43.29,156.78,0,43.29-43.29,43.29-113.48,0-156.78-43.29-43.29-113.48-43.29-156.78,0-43.29,43.29-43.29,113.48,0,156.78ZM2027.5,714.87c24.05-24.05,63.05-24.05,87.1,0,24.05,24.05,24.05,63.05,0,87.1-24.05,24.05-63.05,24.05-87.1,0-24.05-24.05-24.05-63.05,0-87.1Z"/>
        </g>
        <path class="st1" d="M2102.26,792.87h-18.78l-14.34-23.85-12.43,23.85h-16.87l20.94-36.04-19.67-32.86h18.91l12.94,21.83,11.29-21.83h16.75l-19.67,33.88,20.94,35.02Z"/>
      </g>
      <g class="st5">
        <g class="st5">
          <path class="st0" d="M32.47,836.8c43.29,43.29,113.49,43.29,156.78,0,43.29-43.29,43.29-113.48,0-156.78-43.29-43.29-113.48-43.29-156.78,0-43.29,43.29-43.29,113.48,0,156.78ZM67.31,714.87c24.05-24.05,63.05-24.05,87.1,0,24.05,24.05,24.05,63.05,0,87.1-24.05,24.05-63.05,24.05-87.1,0-24.05-24.05-24.05-63.05,0-87.1Z"/>
        </g>
        <path class="st1" d="M142.07,792.87h-18.78l-14.34-23.85-12.43,23.85h-16.87l20.94-36.04-19.67-32.86h18.91l12.94,21.83,11.29-21.83h16.75l-19.67,33.88,20.94,35.02Z"/>
      </g>
      <g class="st5">
        <g class="st5">
          <path class="st0" d="M32.47,189.25c43.29,43.29,113.49,43.29,156.78,0,43.29-43.29,43.29-113.48,0-156.78-43.29-43.29-113.48-43.29-156.78,0-43.29,43.29-43.29,113.48,0,156.78ZM67.31,67.31c24.05-24.05,63.05-24.05,87.1,0,24.05,24.05,24.05,63.05,0,87.1-24.05,24.05-63.05,24.05-87.1,0-24.05-24.05-24.05-63.05,0-87.1Z"/>
        </g>
        <path class="st1" d="M142.07,145.31h-18.78l-14.34-23.85-12.43,23.85h-16.87l20.94-36.04-19.67-32.86h18.91l12.94,21.83,11.29-21.83h16.75l-19.67,33.88,20.94,35.02Z"/>
      </g>
    </g>
  </g>
</svg>