<?xml version="1.0" encoding="UTF-8"?>
<svg id="Layer_1" xmlns="http://www.w3.org/2000/svg" version="1.1" viewBox="0 0 1807.09 472.91">
  <!-- Generator: Adobe Illustrator 30.0.0, SVG Export Plug-In . SVG Version: 2.1.1 Build 123)  -->
  <defs>
    <style>
      .st0, .st1 {
        fill: #d6d3d2;
      }

      .st2 {
        fill: #00629d;
      }

      .st3 {
        fill: none;
        stroke: #ff009b;
        stroke-miterlimit: 10;
      }

      .st1, .st4 {
        isolation: isolate;
      }

      .st1, .st5 {
        mix-blend-mode: multiply;
      }

      .st6 {
        display: none;
      }
    </style>
  </defs>
  <g class="st4">
    <g id="Logo">
      <g>
        <g>
          <path class="st2" d="M761.97,348.31l-27.9-68.33h-8.63l-23.04,60.92c-9.84,26.15-13.21,28.57-18.61,28.97l-1.48.14v1.62h30.33v-1.62l-2.83-.14c-6.19-.26-8.49-5.23-8.49-10.48,0-4.07,2.78-11.76,4.93-17.41l1.66-4.49h29.08l4.48,11.75c6.34,16.85,7.01,20.36-.13,20.62l-3.51.14v1.62h40.03v-1.62l-1.08-.14c-5.25-.66-7.01-2.29-14.83-21.56h.02ZM735.33,333.26h-25.84l12.8-34.53,13.04,34.53h0Z"/>
          <path class="st2" d="M807.54,351.96v-71.16h-26.14v1.6l2.7.14c4.45.14,5.53.54,5.53,17.93v51.49c0,17.38-1.08,17.78-5.53,17.92l-2.7.14v1.62h34.5v-1.62l-2.7-.14c-4.45-.14-5.67-.54-5.67-17.92h.01Z"/>
          <path class="st2" d="M862.42,282.41l2.82.14c5.93.28,7.28,1.89,7.28,20.35v46.64c0,18.47-1.35,20.08-7.28,20.35l-2.82.14v1.62h43.79v-1.62l-2.82-.14c-9.98-.4-11.46-1.88-11.46-20.35v-19.71h9.43c7.15,0,12.27,3.68,15.77,15l.82,2.96h1.34v-37.46h-1.34l-.82,2.96c-3.1,9.7-8.63,12.3-15.77,12.3h-9.43v-22.69c0-18.19.8-17.85,6.47-17.85h6.61c14.82,0,23.18,4.79,28.97,21.36l1.48,4.59h1.35v-30.19h-74.4v1.6h.01Z"/>
          <path class="st2" d="M1038.45,351.96v-42.6h-26.14v1.63l2.7.13c4.45.28,5.53.54,5.53,17.93v22.92c0,17.38-1.08,17.78-5.53,17.92l-2.7.14v1.62h34.5v-1.62l-2.7-.14c-4.45-.14-5.67-.54-5.67-17.92h.01Z"/>
          <rect class="st2" x="1020.63" y="280.08" width="17.44" height="17.44" transform="translate(97.28 812.45) rotate(-45)"/>
          <path class="st2" d="M1071.19,319.65c0-4.99,3.5-7.96,9.57-7.96,7.71,0,16.07,4.82,18.89,13.04l1.08,3.23h1.49v-20.21h-1.35c-2.02,2.56-4.17,3.9-5.93,3.9-1.22,0-2.29-.54-3.64-1.08-4.05-1.88-7.15-2.82-10.92-2.82-11.72,0-21.83,7.27-21.83,18.86,0,23.72,34.5,17.53,34.5,33.15,0,6.34-4.85,9.44-12,9.44-10.41,0-20-7.63-22.78-15.08l-1.22-3.23h-1.48v22.5h1.48c2.57-2.83,4.99-4.17,7.28-4.17,1.48,0,2.96.66,4.99,1.34,4.17,2.02,7.67,2.83,11.72,2.83,13.74,0,24.66-7.28,24.66-19.55,0-24.66-34.52-18.29-34.52-34.19h.01Z"/>
          <path class="st2" d="M1177.02,351.96v-22.12c0-15.62-15.23-22.09-30.47-22.09-16.04,0-25.52,7.96-27.34,15.36l19.56,5.63c-2.96-11.75,5.33-16.76,9.98-16.76,5.8,0,10.34,2.63,10.34,12.06v16.85c-5.12-2.29-9.7-3.23-17.25-3.23-15.77,0-25.2,5.93-25.2,17.79,0,11.05,9.7,17.79,22.78,17.79,10.25,0,16.98-4.99,19.95-10.24v8.63h25.88v-1.62l-2.7-.14c-4.45-.14-5.53-.54-5.53-17.92h0ZM1159.1,357.94c-2.56,5.39-7.81,9.29-12.94,9.29-6.07,0-10.92-3.38-10.92-11.23,0-8.86,5.8-13.5,12-13.5,4.59,0,8.22,1.08,11.86,2.82v12.62Z"/>
          <path class="st2" d="M999.22,351.96v-22.12c0-15.62-15.23-22.09-30.47-22.09-16.04,0-25.52,7.96-27.34,15.36l19.56,5.63c-2.96-11.75,5.33-16.76,9.98-16.76,5.8,0,10.34,2.63,10.34,12.06v16.85c-5.12-2.29-9.7-3.23-17.25-3.23-15.77,0-25.2,5.93-25.2,17.79,0,11.05,9.7,17.79,22.78,17.79,10.25,0,16.98-4.99,19.95-10.24v8.63h25.88v-1.62l-2.7-.14c-4.45-.14-5.53-.54-5.53-17.92h0ZM981.29,357.94c-2.56,5.39-7.81,9.29-12.94,9.29-6.07,0-10.92-3.38-10.92-11.23,0-8.86,5.8-13.5,12-13.5,4.59,0,8.22,1.08,11.86,2.82v12.62Z"/>
          <path class="st2" d="M1216.25,351.96v-71.16h-26.14v1.6l2.7.14c4.45.14,5.53.54,5.53,17.93v51.49c0,17.38-1.08,17.78-5.53,17.92l-2.7.14v1.62h34.5v-1.62l-2.7-.14c-4.45-.14-5.67-.54-5.67-17.92h.01Z"/>
          <path class="st2" d="M1333.12,282.41l2.82.14c6.07.28,7.42,1.89,7.42,20.35v19.99h-42.73v-19.99c0-18.45,1.34-20.07,7.41-20.35l2.83-.14v-1.6h-39.76v1.6l2.82.14c5.93.28,7.28,1.89,7.28,20.35v46.64c0,18.47-1.35,20.08-7.28,20.35l-2.82.14v1.62h39.76v-1.62l-2.83-.14c-6.07-.26-7.41-1.88-7.41-20.35v-22.41h42.73v22.41c0,18.47-1.35,20.08-7.42,20.35l-2.82.14v1.62h39.76v-1.62l-2.83-.14c-5.93-.26-7.27-1.88-7.27-20.35v-46.64c0-18.45,1.34-20.07,7.27-20.35l2.83-.14v-1.6h-39.76v1.6Z"/>
          <path class="st2" d="M1415.22,307.76c-21.29,0-33.96,14.68-33.96,32.75s12.68,32.88,33.96,32.88,33.96-14.69,33.96-32.76-12.66-32.87-33.96-32.87ZM1415.22,369.15c-11.72,0-14.56-9.38-14.56-28.52s2.83-28.63,14.56-28.63,14.42,9.37,14.42,28.63-2.82,28.52-14.42,28.52Z"/>
          <path class="st2" d="M1482.62,351.96v-71.16h-26.14v1.6l2.7.14c4.45.14,5.53.54,5.53,17.93v51.49c0,17.38-1.08,17.78-5.53,17.92l-2.7.14v1.62h34.5v-1.62l-2.7-.14c-4.45-.14-5.67-.54-5.67-17.92h.01Z"/>
          <path class="st2" d="M1561.6,351.96v-71.16h-26.14v1.6l2.7.14c4.45.14,5.53.54,5.53,17.93v8.76c-3.91-1.08-7.82-1.48-11.32-1.48-20.36,0-33.96,13.06-33.96,32.35,0,21.96,15.76,31.53,33.96,31.53h37.46v-1.62l-2.7-.14c-4.31-.14-5.53-.54-5.53-17.92h0ZM1543.69,367.4h-8.9c-12,0-16.98-10.18-16.98-27.29,0-21.04,4.44-28.01,16.44-28.01,2.97,0,5.93.54,9.44,1.49v53.81h0Z"/>
          <rect class="st2" x="1584.47" y="280.09" width="17.44" height="17.44" transform="translate(262.41 1211.14) rotate(-45)"/>
          <path class="st2" d="M1602.46,351.96v-42.6h-26.15v1.63l2.7.13c4.45.28,5.53.54,5.53,17.93v22.92c0,17.38-1.08,17.78-5.53,17.92l-2.7.14v1.62h34.5v-1.62l-2.7-.14c-4.44-.14-5.65-.54-5.65-17.92h0Z"/>
          <path class="st2" d="M1687.64,351.96v-21.44c0-16.17-11.58-22.64-24.8-22.64-11.18,0-16.27,5.32-19.67,10.24v-8.76h-25.88v1.63l2.7.13c4.45.28,5.53.54,5.53,17.93v22.92c0,17.38-1.08,17.78-5.53,17.92l-2.7.14v1.62h34.5v-1.62l-2.7-.14c-4.45-.14-5.67-.54-5.67-17.92v-26.19c1.97-5.82,8.42-13.3,14.89-13.3,7.95,0,11.4,4.71,11.4,14.81v24.67c0,17.38-1.22,17.78-5.53,17.92l-2.7.14v1.62h34.36v-1.62l-2.7-.14c-4.45-.14-5.53-.54-5.53-17.92h.03Z"/>
          <path class="st2" d="M1735.64,309.36c-17.79,0-33.96,9.7-33.96,31.54,0,19.41,13.6,32.35,33.96,32.35,3.77,0,7.41-.28,11.32-1.35v11.47c0,6.81-2.73,14.56-10.35,14.56-6.36,0-13.04-9.69-9.98-19.26l-19.56,5.63c1.12,6.62,10.91,15.36,27.34,15.36,20.22,0,30.47-10.09,30.47-22.09v-48.53c0-17.39,1.22-17.65,5.53-17.93l2.7-.13v-1.63h-37.47ZM1746.96,367.61c-3.51.94-6.34,1.48-9.44,1.48-12,0-16.44-7.02-16.44-28.18,0-17.11,4.98-27.31,17.11-27.31h8.76v54.01h0Z"/>
          <polygon class="st2" points="1772.78 197.44 1772.78 99.67 1748.72 113.04 1762.29 197.44 1772.78 197.44"/>
          <path class="st2" d="M1323.79,203.61c0-1.51-.05-9.4-.12-20.2l11.44,14.03h113.91c13.15,0,19.05-6.97,21.99-13.41l10.94,13.41h33.28c19.78,0,31.81-6.86,38.31-14.28l11.65,14.28h29.54c13.58,0,19.42-7.43,22.26-14.03l11.45,14.03h14.15c12.19,0,22.06-2.84,29.68-6.86,9.18,4.19,20.72,6.86,32.41,6.86,22.35,0,25.14-16.51,25.29-22.27.16-5.92,2.94-75.51,2.94-75.51l-24.06,13.37s13.8,57.29,14.64,62.69c-4.83,2.13-14.18,3.54-26.13,3.54-3.74,0-7.27-.12-10.61-.36,3.45-4.33,5.17-8.51,5.17-11.39,0-12.97-2.58-32.36-13.42-32.36-13.88,0-25.25,21.36-25.25,35.19,0,2.84,1.09,5.66,3.01,8.34-5.75.44-11.08.58-14.9.58h-22.86c.48-1.63.81-3.05,1.09-4.09,1.48-5.57,8.08-30.63,8.08-30.63l-20.33,11.3,6.78,19.88c-4.83,2.13-11.55,3.54-23.5,3.54h-34.16c2.36-3.77,3.4-7.4,3.4-10.07,0-11.76-7.97-34.05-20.35-34.05-16.98,0-42.17,30.08-50.55,44.12h-16.17c.48-1.63.81-3.05,1.09-4.09,1.48-5.57,8.08-30.63,8.08-30.63l-20.33,11.3,6.78,19.88c-4.83,2.13-11.55,3.54-23.5,3.54h-121.24c-.2-30.81-.53-79.6-.53-79.6l-24.06,13.37,18.97,93.53c-10.76,6.6-27.92,10.92-39.87,10.92-18.37,0-22.31-10.39-22.18-20.93.08-6.38,2.17-11.13,2.17-11.13l-5.19-1.5s-3.9,11.07-3.9,24.91,8.64,28.82,25.32,28.82c40.49,0,49.43-28.29,49.43-34.05h-.04ZM1658.17,168.8c5.06-6.7,14.25-12.64,18.64-12.64s10.16,3.83,10.93,14.33c-3.42,2.82-9.13,4.76-15.55,6.08-5.96-1.66-10.71-4.16-14.02-7.77h0ZM1537.81,156.16c4.39,0,17.22,5.34,17.98,15.83-9.15,7.55-30.13,7.27-41.79,7.27h-20.19c16.4-17.03,29.65-23.11,44-23.11h0Z"/>
          <polygon class="st2" points="1212.5 197.44 1212.5 99.67 1188.44 113.04 1202.01 197.44 1212.5 197.44"/>
          <path class="st2" d="M1048.63,197.44h30.07c12.19,0,22.06-2.84,29.68-6.86,9.18,4.19,20.72,6.86,32.41,6.86,22.35,0,28.77-16.51,28.92-22.27.16-5.92,2.94-75.51,2.94-75.51l-24.06,13.37s13.8,57.29,14.64,62.69c-4.83,2.13-17.81,3.54-29.77,3.54-3.74,0-7.27-.12-10.61-.36,3.45-4.33,5.17-8.51,5.17-11.39,0-12.97-2.58-32.36-13.42-32.36-13.88,0-25.25,21.36-25.25,35.19,0,2.84,1.09,5.66,3.01,8.34-5.75.44-11.08.58-14.9.58h-26.62l9.67-79.6-24.06,13.37,8.04,84.41h4.14ZM1094.25,168.8c5.06-6.7,14.25-12.64,18.64-12.64s10.16,3.83,10.93,14.33c-3.42,2.82-9.13,4.76-15.55,6.08-5.96-1.66-10.71-4.16-14.02-7.77h0Z"/>
          <path class="st2" d="M878.71,183.4l11.46,14.04h32.56c19.64,0,31.63-6.76,38.16-14.12l11.52,14.12h28.09c20.35,0,24.16-16.54,24.85-22.27.66-5.46-2.84-40.58-2.84-40.58l-20.33,11.3,17.69,29.84c-4.83,2.13-11.55,3.54-23.5,3.54h-32.43c2.36-3.77,3.4-7.4,3.4-10.07,0-11.76-7.97-34.05-20.35-34.05-16.98,0-42.17,30.08-50.54,44.12h-16.24c.48-1.63.81-3.05,1.09-4.09,1.48-5.57,8.08-30.63,8.08-30.63l-20.33,11.3,6.78,19.88c-4.83,2.13-11.55,3.54-23.5,3.54h-116.89v-52.08l-19.19,10.66,1.21,5.3c-20.18,9.41-29.75,21.15-29.75,33.7,0,9.68,18.61,17.12,33.17,17.12l4.6-15.73,4.39,19.21h126.58c13.59,0,19.43-7.44,22.27-14.04h-.01ZM945.3,156.16c4.39,0,17.22,5.34,17.98,15.83-9.15,7.55-30.13,7.27-41.79,7.27h-20.19c16.4-17.03,29.65-23.11,44-23.11h0ZM695.71,169.52c5.83-6.67,17.83-9.5,25.33-10.65l2.99,13.09c-6.64,1.58-20.93,3.97-28.32-2.44Z"/>
          <rect class="st2" x="1667.72" y="103.76" width="17.44" height="17.44" transform="translate(411.48 1218.37) rotate(-45)"/>
          <rect class="st2" x="1618" y="211.75" width="17.44" height="17.44" transform="translate(320.56 1214.84) rotate(-45)"/>
          <rect class="st2" x="1012.78" y="211.7" width="17.44" height="17.44" transform="translate(143.33 786.87) rotate(-45)"/>
          <rect class="st2" x="1593.3" y="211.69" width="17.44" height="17.44" transform="translate(313.37 1197.35) rotate(-45)"/>
          <rect class="st2" x="1114.2" y="103.76" width="17.44" height="17.44" transform="translate(249.36 826.97) rotate(-45)"/>
          <rect class="st2" x="1089.55" y="103.78" width="17.44" height="17.44" transform="translate(242.12 809.55) rotate(-45)"/>
          <rect class="st2" x="714.42" y="103.77" width="17.44" height="17.44" transform="translate(132.26 544.28) rotate(-45)"/>
          <rect class="st2" x="689.76" y="103.78" width="17.44" height="17.44" transform="translate(125.03 526.85) rotate(-45)"/>
          <rect class="st2" x="922.35" y="103.78" width="17.44" height="17.44" transform="translate(193.15 691.31) rotate(-45)"/>
        </g>
        <g>
          <path class="st2" d="M229.89,416.91c43.29,43.29,113.49,43.29,156.78,0s43.29-113.48,0-156.78c-43.29-43.29-113.48-43.29-156.78,0-43.29,43.29-43.29,113.48,0,156.78h0ZM264.73,294.97c24.05-24.05,63.05-24.05,87.1,0,24.05,24.05,24.05,63.05,0,87.1s-63.05,24.05-87.1,0c-24.05-24.05-24.05-63.05,0-87.1h0Z"/>
          <path class="st2" d="M518.25,309.36l-191.1-227.75c-9.85-11.73-27.9-11.73-37.74,0l-191.1,227.75H33.99L251.67,49.94c29.54-35.2,83.69-35.2,113.23,0l217.68,259.42h-64.33Z"/>
        </g>
      </g>
    </g>
    <g id="Exclusion_Zone" class="st6">
      <path class="st0" d="M-187.41-198.18v869.27H1994.5V-198.18H-187.41ZM1773.1,449.38H34.45V23.54h1738.66v425.84h-.01Z"/>
      <line class="st3" x1="1994.5" y1="23.54" x2="-186.85" y2="23.54"/>
      <line class="st3" x1="1994.5" y1="449.38" x2="-186.85" y2="449.38"/>
      <line class="st3" x1="34.45" y1="-196.06" x2="34.45" y2="671.09"/>
      <line class="st3" x1="1773.1" y1="-196.06" x2="1773.1" y2="671.09"/>
      <g class="st5">
        <g class="st5">
          <path class="st0" d="M1805.25-8.93c43.29,43.29,113.49,43.29,156.78,0,43.29-43.29,43.29-113.48,0-156.78-43.29-43.29-113.48-43.29-156.78,0-43.29,43.29-43.29,113.48,0,156.78h0ZM1840.09-130.87c24.05-24.05,63.05-24.05,87.1,0,24.05,24.05,24.05,63.05,0,87.1s-63.05,24.05-87.1,0c-24.05-24.05-24.05-63.05,0-87.1h0Z"/>
        </g>
        <path class="st1" d="M1914.85-52.87h-18.78l-14.34-23.85-12.43,23.85h-16.87l20.94-36.04-19.67-32.86h18.91l12.94,21.83,11.29-21.83h16.75l-19.67,33.88,20.94,35.02h-.01Z"/>
      </g>
      <g class="st5">
        <g class="st5">
          <path class="st0" d="M1805.25,638.62c43.29,43.29,113.49,43.29,156.78,0,43.29-43.29,43.29-113.48,0-156.78-43.29-43.29-113.48-43.29-156.78,0-43.29,43.29-43.29,113.48,0,156.78h0ZM1840.09,516.69c24.05-24.05,63.05-24.05,87.1,0s24.05,63.05,0,87.1-63.05,24.05-87.1,0c-24.05-24.05-24.05-63.05,0-87.1h0Z"/>
        </g>
        <path class="st1" d="M1914.85,594.69h-18.78l-14.34-23.85-12.43,23.85h-16.87l20.94-36.04-19.67-32.86h18.91l12.94,21.83,11.29-21.83h16.75l-19.67,33.88,20.94,35.02h-.01Z"/>
      </g>
      <g class="st5">
        <g class="st5">
          <path class="st0" d="M-154.94,638.62c43.29,43.29,113.49,43.29,156.78,0s43.29-113.48,0-156.78c-43.29-43.29-113.48-43.29-156.78,0-43.29,43.29-43.29,113.48,0,156.78h0ZM-120.1,516.69c24.05-24.05,63.05-24.05,87.1,0s24.05,63.05,0,87.1-63.05,24.05-87.1,0c-24.05-24.05-24.05-63.05,0-87.1Z"/>
        </g>
        <path class="st1" d="M-45.34,594.69h-18.78l-14.34-23.85-12.43,23.85h-16.87l20.94-36.04-19.67-32.86h18.91l12.94,21.83,11.29-21.83h16.75l-19.67,33.88,20.94,35.02h-.01Z"/>
      </g>
      <g class="st5">
        <g class="st5">
          <path class="st0" d="M-154.94-8.93C-111.65,34.36-41.45,34.36,1.84-8.93s43.29-113.48,0-156.78c-43.29-43.29-113.48-43.29-156.78,0-43.29,43.29-43.29,113.48,0,156.78ZM-120.1-130.87c24.05-24.05,63.05-24.05,87.1,0,24.05,24.05,24.05,63.05,0,87.1s-63.05,24.05-87.1,0c-24.05-24.05-24.05-63.05,0-87.1Z"/>
        </g>
        <path class="st1" d="M-45.34-52.87h-18.78l-14.34-23.85-12.43,23.85h-16.87l20.94-36.04-19.67-32.86h18.91l12.94,21.83,11.29-21.83h16.75l-19.67,33.88,20.94,35.02h-.01Z"/>
      </g>
    </g>
  </g>
</svg>