<?xml version="1.0" encoding="UTF-8"?>
<svg id="Layer_1" xmlns="http://www.w3.org/2000/svg" version="1.1" viewBox="0 0 589.58 580.54">
  <!-- Generator: Adobe Illustrator 29.8.1, SVG Export Plug-In . SVG Version: 2.1.1 Build 2)  -->
  <defs>
    <style>
      .st0 {
        fill: #00629d;
      }
    </style>
  </defs>
  <g id="RiJslT.tif">
    <path class="st0" d="M245.94,17.56c84.89-6.18,165.99,28.16,217.46,95.88,68.18,89.7,66.58,214.65-3.01,302.92l104.31,106.03c14.89,29.53-19.2,54.83-43.47,33.21l-100.21-99.87c-34.63,26.66-75.67,45.09-119.27,50.98C123.91,530.75-19.49,364.54,31.76,191.84,59.7,97.71,147.22,24.75,245.94,17.56ZM459.02,262.9c0-105.73-85.71-191.44-191.44-191.44s-191.44,85.71-191.44,191.44,85.71,191.44,191.44,191.44,191.44-85.71,191.44-191.44Z"/>
  </g>
</svg>