<?xml version="1.0" encoding="UTF-8"?>
<svg id="Layer_2" xmlns="http://www.w3.org/2000/svg" version="1.1" viewBox="0 0 595.28 362.83">
  <!-- Generator: Adobe Illustrator 30.0.0, SVG Export Plug-In . SVG Version: 2.1.1 Build 123)  -->
  <defs>
    <style>
      .st0 {
        fill: #f2f2f2;
      }
    </style>
  </defs>
  <path class="st0" d="M58.93,306.18L246.52,82.2c.16-.2.33-.39.5-.58-2.78,3.37-8.32,10.11-9.42,11.8h0s-163.39,212.75-163.39,212.75h3.1L238.59,96.15l-146.85,210.02h3.89L236.26,105.05l-126.95,201.12h4.64l121.57-192.6-108.63,192.6h5.35l104.02-184.42-91.76,184.42h6.03l87.79-176.42-76.2,176.42h6.68l72.8-168.55-61.86,168.55h7.32l80.12-218.33c1.7-4.62,4.07-8.66,7.06-11.99,6.97-7.79,16.57-11.69,26.32-10.69,10.15,1.03,19.27,7.29,25.01,17.16.63,1.08,1.2,2.31,1.69,3.64l80.99,220.21h7.32l-55.56-151.05,66.47,151.05h6.7l-72.1-163.86,83.65,163.86h6.06l-90.64-177.56,102.85,177.56h5.39l-111.39-192.3,124.29,192.3h4.68l-134.62-208.28,148.26,208.28h3.92l-156.75-220.21-.08-.1c-.58-.69-1.23-1.48-1.92-2.32-1.21-1.47-2.52-3.06-3.86-4.63,2.19,2.28,4.11,4.49,5.46,6.1l171.57,221.16h3.11l-172.77-222.7c-3.91-4.66-9.69-10.96-15.05-14.53l-.85-.57c-.76-.51-1.54-1.02-2.32-1.53,6.96,3.9,13.24,9.06,18.5,15.34l187.76,223.99h2.24l-188.69-225.1c-13.01-15.52-32.08-24.42-52.34-24.42h-.01c-20.26,0-39.33,8.91-52.34,24.44L56.69,306.18h2.24Z"/>
</svg>