<?xml version="1.0" encoding="UTF-8"?>
<svg id="Layer_1" xmlns="http://www.w3.org/2000/svg" xmlns:xlink="http://www.w3.org/1999/xlink" version="1.1" viewBox="0 0 246.49 190.03">
  <!-- Generator: Adobe Illustrator 29.8.1, SVG Export Plug-In . SVG Version: 2.1.1 Build 2)  -->
  <defs>
    <style>
      .st0 {
        fill: url(#linear-gradient2);
      }

      .st1 {
        fill: url(#linear-gradient1);
      }

      .st2 {
        fill: #00629d;
      }

      .st3 {
        fill: url(#linear-gradient);
      }

      .st4 {
        fill: url(#_ÂÁ_Ï_ÌÌ_È_ËÂÌÚ_4);
      }

      .st5 {
        fill: url(#_ÂÁ_Ï_ÌÌ_È_ËÂÌÚ_41);
      }

      .st6 {
        fill: url(#_ÂÁ_Ï_ÌÌ_È_ËÂÌÚ_42);
      }
    </style>
    <linearGradient id="linear-gradient" x1="340.89" y1="273" x2="-39.7" y2="-4.8" gradientUnits="userSpaceOnUse">
      <stop offset="0" stop-color="#b58d5b"/>
      <stop offset=".3" stop-color="#907140"/>
      <stop offset=".42" stop-color="#be965d"/>
      <stop offset=".54" stop-color="#e5b576"/>
      <stop offset=".6" stop-color="#f4c280"/>
      <stop offset=".69" stop-color="#e2b374"/>
      <stop offset=".87" stop-color="#b58f57"/>
      <stop offset="1" stop-color="#907140"/>
    </linearGradient>
    <linearGradient id="linear-gradient1" x1="6.68" y1="95.01" x2="239.81" y2="95.01" xlink:href="#linear-gradient"/>
    <linearGradient id="linear-gradient2" x1="11.46" y1="95.01" x2="235.02" y2="95.01" xlink:href="#linear-gradient"/>
    <linearGradient id="_ÂÁ_Ï_ÌÌ_È_ËÂÌÚ_4" data-name="¡ÂÁ˚ÏˇÌÌ˚È „‡‰ËÂÌÚ 4" x1="131.4" y1="126.89" x2="131.4" y2="126.89" gradientUnits="userSpaceOnUse">
      <stop offset="0" stop-color="#b58d5b"/>
      <stop offset=".28" stop-color="#907140"/>
      <stop offset=".42" stop-color="#be965d"/>
      <stop offset=".56" stop-color="#e5b576"/>
      <stop offset=".63" stop-color="#f4c280"/>
      <stop offset=".71" stop-color="#e2b374"/>
      <stop offset=".88" stop-color="#b58f57"/>
      <stop offset="1" stop-color="#907140"/>
    </linearGradient>
    <linearGradient id="_ÂÁ_Ï_ÌÌ_È_ËÂÌÚ_41" data-name="¡ÂÁ˚ÏˇÌÌ˚È „‡‰ËÂÌÚ 4" x1="122.58" y1="118.16" x2="122.58" y2="118.16" xlink:href="#_ÂÁ_Ï_ÌÌ_È_ËÂÌÚ_4"/>
    <linearGradient id="_ÂÁ_Ï_ÌÌ_È_ËÂÌÚ_42" data-name="¡ÂÁ˚ÏˇÌÌ˚È „‡‰ËÂÌÚ 4" x1="44.28" y1="90.05" x2="44.28" y2="90.05" xlink:href="#_ÂÁ_Ï_ÌÌ_È_ËÂÌÚ_4"/>
  </defs>
  <path class="st3" d="M171.08,56.14c-19.86,0-37.38,9.98-47.83,25.2-8.64-12.59-22.13-21.59-37.77-24.33l32.83-39.11h-37.73l-49.21,58.51h0c-8.69,10.14-13.95,23.32-13.95,37.72,0,32.03,25.96,57.99,57.99,57.99,19.86,0,37.38-9.98,47.83-25.2,10.45,15.22,27.98,25.2,47.83,25.2,32.03,0,57.99-25.96,57.99-57.99s-25.96-57.99-57.99-57.99Z"/>
  <g>
    <path class="st1" d="M171.08,182.86c-17.96,0-34.91-6.86-47.79-19.34-12.84,12.47-29.82,19.34-47.88,19.34-37.9,0-68.73-30.83-68.73-68.73,0-16.32,6.11-32.47,17.22-45.47L75.57,7.17h65.77l-37.32,44.46c7.12,3.26,13.58,7.68,19.22,13.16,12.89-12.5,29.85-19.38,47.83-19.38,37.9,0,68.73,30.83,68.73,68.73s-30.83,68.73-68.73,68.73ZM123.28,161.64l.47.47c12.69,12.52,29.5,19.41,47.32,19.41,37.16,0,67.39-30.23,67.39-67.39s-30.23-67.39-67.39-67.39c-17.85,0-34.67,6.91-47.36,19.45l-.47.47-.47-.47c-5.85-5.78-12.62-10.4-20.11-13.71l-.82-.36,36.61-43.62h-62.27l-51.38,61.16h0c-10.82,12.73-16.78,28.52-16.78,44.46,0,37.16,30.23,67.39,67.39,67.39,17.92,0,34.76-6.89,47.4-19.41l.47-.47Z"/>
    <path class="st0" d="M171.08,178.08c-18.29,0-35.65-7.81-47.79-21.46-12.13,13.65-29.51,21.46-47.88,21.46-35.26,0-63.95-28.69-63.95-63.95,0-15.37,5.53-30.22,15.57-41.82L77.79,11.95h53.29l-34.96,41.65c10.48,3.58,19.83,9.79,27.16,18.05,12.14-13.65,29.5-21.46,47.79-21.46,35.26,0,63.95,28.69,63.95,63.95s-28.69,63.95-63.95,63.95ZM123.28,153.8l.7.81c11.82,13.74,28.99,21.62,47.09,21.62,34.24,0,62.1-27.86,62.1-62.1s-27.86-62.1-62.1-62.1c-18.11,0-35.27,7.88-47.09,21.62l-.7.81-.7-.81c-7.51-8.74-17.31-15.22-28.33-18.72l-1.31-.42L127.12,13.79h-48.47l-50.22,59.72c-9.75,11.27-15.13,25.7-15.13,40.62,0,34.24,27.86,62.1,62.1,62.1,18.18,0,35.37-7.88,47.17-21.62l.7-.81Z"/>
  </g>
  <path class="st4" d="M131.4,126.89"/>
  <g>
    <polygon class="st2" points="64.89 66.12 66.38 66.93 67.21 65.33 65.71 64.44 64.86 65.94 63.46 65.11 62.52 66.73 64.11 67.59 64.89 66.12"/>
    <path class="st2" d="M97.95,82.54c2.81-3.37,5.36-6.39,7.04-8.55l-1.85-.73c-1.59,2.36-3.99,5.36-6.33,8.43l1.15.85Z"/>
    <path class="st2" d="M72.22,74.54c.14,0,.29,0,.45-.01.69-.06,2.95-.46,2.99-3.38-.32-1.73-1.51-3.19-2.46-4.1l-.19-.18-.17.2c-.29.34-.51.81-.69,1.47l-.04.15.12.1c.64.55,1.78,1.68,2.28,3.16-.33.4-.89.62-1.72.69-.45.04-.81,0-1.07-.09-.29-.11-.44-.3-.46-.59,0-.13,0-.25.03-.38l.03-.14-.53-.45-.14.28c-.31.63-.38,1.32-.35,1.73.08.95.78,1.51,1.91,1.54Z"/>
    <polygon class="st2" points="108.71 85.46 108.74 83.73 106.87 83.7 106.89 85.52 108.71 85.46"/>
    <path class="st2" d="M83.32,77l2.17,1.76c1.04-.44,2.2-.59,3.25-2.14l.38.2s0,0,0,0l.37.2h0c1.29.67,2.81,1.58,3.98,2.3.57.4,1.86,1.17,1.86,1.17l4.37-5.8h0s0,0,0,0l.76-1,.66-.17.28-2.3-1.5-.27c-.03.06-.06.12-.09.19-.13.22-3.54,5.94-4.61,7.43-1.4-1.13-3.61-2.44-4.75-3.09h0s-.75-.41-.75-.41c.33-.77.92-2.32,1.01-4.11l-2.06.36c.29,1.53.18,3.05-.2,4.38-.95.74-1.88,1.09-2.7,1.13-.58.07-1.6-.09-2.26-.2l-.2.37Z"/>
    <polygon class="st2" points="54.48 68.83 52.8 68.43 52.37 70.26 54.15 70.62 54.48 68.83"/>
    <path class="st2" d="M31.99,112.3c-.02.62-.33,1.18-.81,1.5l-.2.13.94,2.06.07-.08c.73-.83,1.29-1.3,1.93-1.61.9-.06,1.74.24,2.44.88.96.88,1.52,2.27,1.53,3.82v.33s.65-.17.65-.17l.05-.08c.34-.5.61-1.3.78-2.37v-.06s0-.05,0-.05c-.66-2.32-2.64-3.6-5.5-3.47-.17,0-.31.04-.46.06,0,0,0,0,0,0,.08-.24.14-.55.15-.82.02-.59-.18-1.11-.56-1.52.06,0,.11-.01.17-.02-.02,0-.04.01-.04.01,0,0,2.59.11,3.35-2.47.76-2.58.72-3.12,1.46-6.22.47-1.98.69-2.83.62-3.67.74-.55,1.5-1.58,2.29-3.1l-.61-.49c.29,0,.69-.11.91-.33.11-.11.2-.28.26-.36.85-1.24,1.2-2.15,1.08-2.88h.55s.06-.05.06-.05c.34-.23,1.11-1.13,1.14-1.16l.33-.39c.57-.67.82-1.3.75-1.93-.06-.61-.42-1.18-1.09-1.75l-4.5-4.24-.06-.67-2.22-.64-.5,1.43,6.27,5.31c.32.27.73.64.73.64,0,0-.19.26-.47.59-.19.26-.45.52-.51.6-.49.61-.7.89-1.05,1.22-.04-.04-.08-.07-.12-.11l-2.52-2.31-.61,1.52,2.01,1.84c.11.1.33.3.33.3-.1.29-.36.74-.7,1.31-.18.34-.63.85-1.46.76l-1.73-.17c-1.2-.15-2.12.27-2.54,1.14-.72,1.51.59,3.43,2.21,4.22h0s.27.11.27.11c0,0-1.36,5.31-1.94,8.12,0,0-.45,1.87-1.42,2.26-1.3.52-2.83.04-3.07-.05l-.03-.02h0s-.01,0-.01,0c0,0,0,0,0,0l-.25.23-.04,1.14.17.06c1.05.4,1.55.95,1.52,1.66ZM35.95,95.33c.13-.26.62-.32,1.24-.32.14,0,.61.03.79.05l1.1.03c.05,0,.11.01.16.02-.6,1.12-1.21,1.91-1.81,2.36-1.02-.77-1.76-1.54-1.48-2.14Z"/>
    <path class="st2" d="M30.78,129.23c1.05-.27,1.58-.94,1.69-2.69l.09-.99c.1-1.25.27-1.56.75-1.68.69-.18,1.12.47,1.31,1.18.1.38.15.82.13,1.28l-1.23.73.23.88,2.34-.61c-.08-.98-.16-1.71-.36-2.47-.53-2.03-1.73-3.08-3.41-2.64-1.14.3-1.57,1.04-1.69,2.82l-.1,1.01c-.08,1.13-.25,1.39-.66,1.5-.6.16-1.14-.25-1.41-1.27-.14-.54-.15-1.29.02-1.95l1.27-.33-.24-.92-2.23.14c-.29,1.11-.25,2.35.04,3.46.52,2.01,1.9,2.97,3.45,2.57Z"/>
    <polygon class="st2" points="38.78 113.5 40.05 112.22 38.83 111.06 40 109.85 38.69 108.61 37.43 109.81 38.64 111.06 37.47 112.17 38.78 113.5"/>
    <polygon class="st2" points="35.54 89.63 37.3 89.21 36.9 87.6 38.55 87.2 38.1 85.47 36.39 85.8 36.76 87.48 35.16 87.79 35.54 89.63"/>
    <path class="st2" d="M48.13,85.68c-3.02-3.19-5.71-6.08-7.65-8.01l-.94,1.75c2.15,1.86,4.85,4.6,7.62,7.29l.98-1.04Z"/>
    <polygon class="st2" points="30.03 114.77 28.69 113.53 27.46 114.73 28.76 116.08 30.03 114.77"/>
    <path class="st2" d="M205.48,89.89c.44.6.93,1.04,1.51,1.41l1.28.13,1.57-1.16.63.4.66-.49-2.07-2.81-.66.48.52.8-1.79,1.32c-.11-.13-.2-.25-.3-.38-1.06-1.44-.77-3.11.76-4.24,1.44-1.06,3-.9,3.95.39.25.34.46.7.55,1l-1,1.15.55.74,2.08-1.53c-.23-.59-.68-1.4-1.17-2.07-1.69-2.3-4.21-2.78-6.38-1.18-2.02,1.49-2.3,3.87-.7,6.04Z"/>
    <polygon class="st2" points="197.01 79.43 196.2 79.07 195.67 79.69 197.95 81.64 198.48 81.02 197.81 80.33 200.68 76.99 200.67 83.98 201.58 84.75 206.21 79.34 207.01 79.67 207.54 79.05 205.27 77.1 204.74 77.72 205.42 78.43 202.56 81.77 202.57 74.79 200.93 73.38 200.39 74 201.07 74.7 197.01 79.43"/>
    <polygon class="st2" points="194.38 79.03 194.79 78.32 193.96 77.77 197.07 72.37 197.97 72.56 198.37 71.85 195.06 69.94 194.65 70.64 195.47 71.19 192.36 76.58 191.48 76.41 191.07 77.12 194.38 79.03"/>
    <polygon class="st2" points="216.91 106.76 213.62 104.86 213.29 104.08 212.48 104.19 212.89 107.28 213.7 107.17 213.65 106.2 216.13 107.5 214.05 109.44 213.85 108.42 213.04 108.53 213.59 112.62 214.4 112.51 214.54 111.62 217.44 108.92 220.57 110.71 220.9 111.49 221.71 111.38 221.3 108.29 220.49 108.4 220.54 109.37 218.23 108.17 220.16 106.36 220.35 107.34 221.16 107.23 220.62 103.21 219.81 103.32 219.67 104.19 216.91 106.76"/>
    <polygon class="st2" points="211.08 97.04 210.53 96.34 209.76 96.61 212.15 103.24 214.35 102.46 214.03 101.59 212.79 101.75 211.76 98.9 214.1 98.06 214.75 99.87 214.12 100.32 214.4 101.09 216.82 100.21 216.54 99.45 215.77 99.5 215.12 97.69 217.43 96.86 218.34 99.41 217.31 100.1 217.62 100.97 219.78 100.19 217.45 93.7 216.68 93.98 216.95 94.92 211.08 97.04"/>
    <polygon class="st2" points="181.35 71.03 180.44 70.91 180.01 72.08 177.01 71.69 177.34 69.22 179.24 69.48 179.35 70.24 180.16 70.35 180.5 67.8 179.69 67.69 179.38 68.4 177.48 68.14 177.8 65.72 180.49 66.07 180.63 67.31 181.54 67.44 181.85 65.15 175.01 64.24 174.9 65.05 175.87 65.24 175.04 71.44 174.16 71.59 174.06 72.41 181.05 73.34 181.35 71.03"/>
    <polygon class="st2" points="135.42 137.41 137.23 137.66 137.54 135.96 135.7 135.62 135.42 137.41"/>
    <polygon class="st2" points="131.71 86.05 136.48 90.05 136.13 90.88 136.76 91.41 138.68 89.11 138.05 88.59 137.37 89.26 133.51 86.02 138.39 86.92 139 86.19 137.2 81.46 140.99 84.64 140.58 85.57 141.21 86.1 143.74 83.08 143.12 82.55 142.44 83.26 137.63 79.23 137.99 78.43 137.36 77.9 135.58 80.02 137.47 84.84 132.34 83.89 130.39 86.22 131.01 86.75 131.71 86.05"/>
    <polygon class="st2" points="147.62 145.77 145.75 145.86 145.89 147.67 147.55 147.52 147.69 149.21 149.48 149.03 149.4 147.29 147.69 147.39 147.62 145.77"/>
    <polygon class="st2" points="126.91 95 132.53 97.74 132.41 98.62 133.14 98.97 136.22 92.63 134.13 91.61 133.72 92.44 134.71 93.22 133.38 95.95 131.15 94.86 131.99 93.13 132.75 93.27 133.11 92.53 130.79 91.41 130.44 92.14 131.01 92.66 130.17 94.38 127.97 93.31 129.15 90.88 130.37 91.13 130.77 90.3 128.71 89.3 125.69 95.51 126.42 95.86 126.91 95"/>
    <polygon class="st2" points="172.11 64.67 172.01 63.86 168.84 64.27 168.95 65.08 170.19 65.02 169.4 70.77 166.92 64.82 165.04 65.48 164.25 71.42 161.91 66.07 163.27 65.82 163.16 65.01 159.03 65.54 159.14 66.35 159.89 66.5 163 73.31 165.03 73.05 165.92 67.58 168.12 72.64 170.14 72.38 171.41 65.02 172.11 64.67"/>
    <polygon class="st2" points="177.92 162.42 177.5 156.19 178.32 155.86 178.27 155.05 171.24 155.53 171.4 157.85 172.32 157.79 172.51 156.55 175.52 156.34 175.69 158.81 173.77 158.94 173.51 158.22 172.7 158.28 172.87 160.84 173.69 160.78 173.85 160.03 175.76 159.9 175.93 162.34 173.23 162.52 172.85 161.34 171.93 161.4 172.08 163.69 178.96 163.23 178.9 162.41 177.92 162.42"/>
    <polygon class="st2" points="118.98 136.38 116.75 135.25 117.55 133.67 118.38 133.82 118.75 133.09 116.46 131.93 116.09 132.66 116.7 133.24 115.9 134.82 113.42 133.56 114.6 131.24 115.81 131.53 116.23 130.71 114.18 129.67 111.11 135.71 111.84 136.08 112.34 135.23 117.89 138.05 117.76 138.94 118.49 139.31 120.36 135.64 119.63 135.27 118.98 136.38"/>
    <polygon class="st2" points="37.04 132.14 37.65 132.81 38.4 132.48 36.84 128.98 36.1 129.31 36.44 130.23 30.75 132.77 30.14 132.11 29.4 132.45 30.95 135.94 31.7 135.61 31.35 134.67 37.04 132.14"/>
    <path class="st2" d="M182.31,153.9c-.7.2-1.28.5-1.81.9l-.55,1.3.3.28c.6-.48,1.23-.81,1.89-1,1.69-.47,2.91.31,3.43,2.17.48,1.72-.13,3.09-1.54,3.49-.38.11-.74.16-1.04.15l-.74-1.41-.89.25.71,2.56c.61-.01,1.5-.13,2.27-.35,2.61-.73,3.84-2.87,3.12-5.47-.67-2.42-2.7-3.55-5.16-2.86Z"/>
    <polygon class="st2" points="197.86 155.38 194.92 149.88 195.54 149.26 195.16 148.54 192.52 149.95 192.9 150.67 193.79 150.3 195.86 154.18 189.36 151.64 188.31 152.2 191.66 158.48 191.07 159.1 191.46 159.82 194.1 158.41 193.71 157.69 192.8 158.08 190.73 154.2 197.23 156.74 199.14 155.72 198.75 155 197.86 155.38"/>
    <polygon class="st2" points="216.46 134.04 210.89 131.2 211.04 130.33 210.31 129.96 207.33 135.8 209.42 136.86 209.79 136.14 208.81 135.33 210.01 132.97 215.35 135.7 215.23 136.59 215.95 136.96 217.69 133.55 216.96 133.18 216.46 134.04"/>
    <path class="st2" d="M217.48,113.78c-2.5-.18-4.25,1.35-4.43,3.9-.05.72.04,1.37.24,2l1.04.95.36-.19c-.25-.73-.35-1.43-.3-2.11.12-1.75,1.26-2.64,3.19-2.5,1.78.13,2.87,1.16,2.77,2.62-.03.39-.1.75-.21,1.03l-1.58.22-.07.92,2.65.19c.19-.58.38-1.46.43-2.26.19-2.7-1.42-4.59-4.1-4.78Z"/>
    <polygon class="st2" points="219.63 124.62 213.61 122.94 213.58 122.05 212.79 121.83 210.89 128.61 213.13 129.24 213.38 128.35 212.28 127.76 213.09 124.85 215.48 125.52 214.96 127.37 214.19 127.37 213.97 128.16 216.45 128.85 216.67 128.06 216.01 127.66 216.53 125.81 218.89 126.47 218.16 129.08 216.91 129.04 216.66 129.93 218.88 130.55 220.74 123.91 219.95 123.69 219.63 124.62"/>
    <polygon class="st2" points="205.75 149.21 201.67 144.47 202.13 143.72 201.6 143.1 196.26 147.7 197.78 149.46 198.48 148.86 197.89 147.75 200.18 145.78 201.8 147.66 200.34 148.91 199.7 148.49 199.08 149.02 200.76 150.97 201.37 150.44 201.05 149.74 202.51 148.48 204.11 150.34 202.06 152.11 201.04 151.39 200.34 151.99 201.84 153.73 207.06 149.23 206.53 148.61 205.75 149.21"/>
    <polygon class="st2" points="211.84 142.11 206.9 138.26 207.22 137.43 206.58 136.93 202.54 142.1 204.39 143.54 204.89 142.9 204.08 141.92 205.71 139.84 210.44 143.53 210.15 144.38 210.79 144.88 213.15 141.86 212.5 141.36 211.84 142.11"/>
    <path class="st2" d="M138.37,140.28l-1.56-1.45c-.6.65-1.03,1.08-1.49,1.49-.39.35-2.53,1.91-3.08,1.89-.52-.29-1.28-.74-1.83-1.5-1.03-1.41-.34-3.19.59-3.73.43-.25.86-.4,1.55-.53l-.04-.43c-.9.05-1.44,0-2.38.18-1.64.96-2.84,3.09-1.32,5.27.84,1.2,2.4,2.21,3.47,2.24.76.04,1.98-.13,3.62-1.4.75-.58,1.57-1.29,2.5-2.05Z"/>
    <polygon class="st2" points="57.17 84.91 55.6 84.53 55.19 86.34 56.95 86.72 57.27 85.07 58.91 85.4 59.26 83.63 57.57 83.21 57.17 84.91"/>
    <polygon class="st2" points="54.34 150.56 55.15 151.18 51.89 153.06 52.14 149.28 53.15 149.83 53.59 149.14 49.95 146.87 49.52 147.57 50.13 148.25 50.01 153.34 49.13 154.74 48.26 154.54 47.83 155.23 51.13 157.29 51.56 156.59 50.76 156.02 51.86 154.25 56.13 152 57.05 152.25 57.48 151.56 54.77 149.87 54.34 150.56"/>
    <polygon class="st2" points="42.17 140.47 42.82 141.02 43.5 140.56 41.75 137.98 41.07 138.44 41.55 139.28 38.95 139.24 39.86 136.75 40.47 137.55 41.15 137.09 38.87 133.73 38.2 134.19 38.46 135.03 37.14 138.56 33.34 138.33 32.7 137.78 32.02 138.24 33.77 140.82 34.44 140.36 33.96 139.52 36.77 139.58 35.77 142.24 35.14 141.41 34.46 141.87 36.77 145.29 37.45 144.84 37.18 143.98 38.57 140.26 42.17 140.47"/>
    <polygon class="st2" points="65.49 155.06 66.44 155.42 63.85 158.14 63.02 154.46 64.15 154.69 64.36 153.9 60.23 152.76 60.02 153.55 60.8 154.03 62.12 158.95 61.68 160.54 60.79 160.59 60.57 161.38 64.32 162.41 64.54 161.63 63.61 161.31 64.16 159.29 67.62 155.93 68.57 155.91 68.78 155.12 65.7 154.27 65.49 155.06"/>
    <polygon class="st2" points="44.25 141.37 42.65 143.03 43.24 143.59 44.28 142.92 45.32 143.92 41.13 148.25 40.31 147.85 39.75 148.44 42.42 151.03 42.99 150.44 42.4 149.79 46.74 145.3 47.76 146.29 47.13 147.36 47.72 147.92 49.31 146.27 44.25 141.37"/>
    <polygon class="st2" points="80.62 78.33 82.02 77.19 80.99 75.79 79.61 76.82 78.65 75.51 77.16 76.64 78.27 78.06 79.57 77.01 80.62 78.33"/>
    <path class="st2" d="M101.95,150.32l-.96.25c-1.2.33-1.55.27-1.83-.14-.4-.59.07-1.22.66-1.63.32-.22.72-.42,1.16-.56l1.1.92.75-.51-1.37-2c-.89.41-1.55.73-2.2,1.17-1.74,1.19-2.32,2.67-1.34,4.1.67.97,1.51,1.13,3.22.64l.98-.25c1.09-.31,1.39-.24,1.63.11.35.51.15,1.16-.72,1.76-.46.32-1.16.58-1.84.63l-.74-1.09-.79.54.89,2.05c1.14-.1,2.29-.56,3.24-1.21,1.71-1.17,2.16-2.79,1.25-4.12-.61-.9-1.42-1.17-3.1-.68Z"/>
    <path class="st2" d="M79.39,74.31l1.71.27c.3.06.88.09,1.12.09,1.48,0,1.94-.9,2.25-1.81.22-.53.61-2.53.53-4.41l-2.05.16v.24c.12,1.92.07,3.81-.02,4.24,0,0-3.08-.33-3.37-.38-.38-.05-.62-.15-.75-.3-.13-.15-.18-.41-.15-.83l.61-7.26-1.6.21-.55,6.93c-.11,1.85.19,2.51,2.26,2.83Z"/>
    <polygon class="st2" points="75.36 156.58 75.6 157.81 76.52 157.86 76.64 155.56 69.76 155.2 69.71 156.01 70.69 156.12 70.36 162.36 69.5 162.59 69.46 163.4 76.5 163.77 76.62 161.45 75.7 161.4 75.36 162.61 72.34 162.45 72.47 159.97 74.39 160.07 74.56 160.83 75.38 160.87 75.51 158.3 74.7 158.26 74.45 158.99 72.53 158.89 72.66 156.44 75.36 156.58"/>
    <path class="st2" d="M108.51,86.88c-.56.68-.97,1.13-1.41,1.56-.37.37-2.43,2.03-2.98,2.05-.53-.26-1.32-.67-1.91-1.4-1.1-1.36-.5-3.16.39-3.76.42-.27.84-.45,1.52-.6l-.06-.43c-.89.1-1.44.07-2.37.3-1.59,1.05-2.67,3.24-1.05,5.33.9,1.16,2.51,2.08,3.58,2.06.59,0,1.45-.15,2.54-.83.55.8,2.51,3.67,2.95,4.33,0,0,.81,1.14,1.63.91.25,1.18.87,2.68,1.61,3.88l.05.08.41.63c.85-.34,2.22-.98,2.7-1.27,1.58-.97,2.14-2.53,1.37-3.78-.41-.67-1.38-1.39-3.63-1.03l-.99.15c-.56.09-.91.02-1.21-.22-.81-1.05-3.09-4.02-3.55-4.73.63-.56,1.3-1.19,2.05-1.87l-1.64-1.37ZM114.17,96.47c.93-.15,1.53-.04,1.76.33.17.27.18.54.04.82-.15.31-.49.62-.99.93-.25.16-.54.3-.84.44-.43-.73-.75-1.51-.98-2.36l1.01-.16Z"/>
    <path class="st2" d="M69.5,72.21c-.29-1.2-1.63-2.56-3.98-4.02l-.24-.15-.73,1.46.5.27c-.91,1.44-1.22,2.67-.96,3.76.28,1.17,1.14,1.81,2.32,1.81.28,0,.59-.04.9-.11,1.68-.41,2.53-1.6,2.18-3.03ZM66.99,73.72c-.82.2-1.32-.04-1.48-.71-.14-.59.12-1.46.74-2.48,1.33.93,1.72,1.54,1.81,1.9.21.88-.67,1.19-1.06,1.29Z"/>
    <path class="st2" d="M59.51,74.03c-.69-1.16-1.5-2.02-2.35-2.48-.87-.47-1.76-.49-2.49-.05-.5.3-.88.84-1.05,1.54-.24.92-.1,1.95.37,2.74.95,1.61,2.6,1.33,4.78.32-.05.18-.24.38-.76.69l-.17.1c-.96.57-1.86.95-3.01,1.28l-.32.09.78,1.31.18-.04c.51-.11,1.03-.26,1.58-.46.26.26.43.46.54.64.33.56-.27,1.43-1.54,2.27-.22.14-.7.32-.91.42-1.57.77-3.2-.21-3.58-1.21-.18-.47-.25-.92-.25-1.61l-.43-.03c-.1.89-.25,1.63-.23,2.58.07.17.15.34.24.51,0,.01,0,.02,0,.03.01.02.03.05.05.07.02.04.05.07.07.11.08.13.17.26.27.38.05.06.1.13.16.19.13.14.27.28.42.4.01,0,.02.02.04.03.33.26.72.47,1.17.57.06.02.11.03.17.04.05,0,.1.01.15.02.67.1,1.41.03,2.22-.35.44-.21,1.22-.66,1.61-1h0c.71-.53,1.26-1.1,1.58-1.69.47-.84.49-1.66.06-2.39-.13-.23-.31-.45-.49-.64.04-.02.08-.05.12-.07,1-.59,1.51-1.14,1.68-1.79.17-.68-.03-1.46-.67-2.53ZM55.23,74.98c-.21-.36-.31-.8-.26-1.22.04-.38.2-.68.43-.82.14-.08.3-.12.47-.12.69,0,1.57.7,2.33,1.88-2,.95-2.64.8-2.97.28Z"/>
    <polygon class="st2" points="125.96 103.83 123.88 101.68 123.27 101.93 125.36 104.08 125.96 103.83"/>
    <polygon class="st2" points="127.03 103.3 124.95 101.15 124.35 101.42 126.43 103.55 127.03 103.3"/>
    <path class="st2" d="M127.86,129.52c-.47-1.13.1-1.9.66-2.09.54-.19,1.14.03,1.45.71.14.3.27.7.4,1.35l1.38-.64c-.11-.74-.23-1.26-.38-1.58-.62-1.33-2.08-2.08-3.35-1.49-.54.25-1.04.88-1.23,1.46l-.5-1.07s0,0,0,0l-.6-1.3-.6-1.31-.6-1.3s0,0,0,0l-.06-.12c-.31-.67-.21-1.03.49-1.35l5.46-2.53-.9-1.33-5.23,2.42c-1.66.77-2.18,1.87-1.47,3.4l.12.25s0,0,0,0l.6,1.3.6,1.31.6,1.3h0s2.17,4.68,2.17,4.68l1.71-.49-.73-1.57Z"/>
    <path class="st2" d="M125.64,114.32c-.33-.75-1.19-1.63-3.38-1.58l-.96.02c-.54,0-.87-.11-1.14-.4-.13-.23-.4-.69-.64-1.11l-.26-.49-.65-1.33-.6-1.16s0,0,0,0l-.06-.12c-.31-.67-.21-1.03.49-1.35l5.46-2.53-.9-1.33-5.23,2.42c-1.66.77-2.18,1.87-1.47,3.4l.11.25s0,0,0,0l.6,1.31.63,1.28.54,1.09s0,0,0,0c.01.03.03.06.04.08,0,0,.67,1.29,1.48,1.16.13,1.25.59,2.88,1.18,4.23l.04.09.34.71c.84-.23,2.21-.69,2.7-.93,1.6-.77,2.29-2.3,1.66-3.7ZM123,116.65c-.26.12-.55.24-.84.33-.34-.81-.58-1.66-.72-2.57l.98-.02c.91-.03,1.47.17,1.65.59.13.3.12.58-.04.85-.18.3-.52.57-1.03.82Z"/>
    <path class="st2" d="M113.52,139.36c-1.95-1.58-4.25-1.32-5.85.65-1.61,1.98-1.3,4.35.78,6.05,1.94,1.58,4.25,1.34,5.86-.64,1.6-1.97,1.29-4.36-.79-6.06ZM113.34,144.63c-.82,1.01-2.28.93-3.7-.22-1.43-1.17-1.84-2.59-1.02-3.6.83-1.02,2.3-.93,3.7.21,1.44,1.17,1.83,2.6,1.01,3.61Z"/>
    <path class="st2" d="M87.23,161.33l-3.93-6.74-1.81.65-1.47,7.26-.73.4.13.81,3.18-.52-.13-.81-1.24.1.3-1.6,2.81-.46.82,1.44-1.21.28.13.81,4.09-.67-.13-.81-.8-.13ZM81.74,159.74l.56-2.93,1.47,2.59-2.03.33Z"/>
    <path class="st2" d="M97.26,157.85l-2.73-1.86c.86-.8,1.15-1.8.76-2.75-.59-1.44-1.9-1.72-4.05-.83l-3.55,1.47.31.75.92-.31,2.38,5.76-.67.59.31.75,3.58-1.48-.31-.75-1.05.35-.94-2.26.71-.3,3.01,2.37,2.65-1.1-.31-.75-1.02.35ZM92.36,156.12l-.53.22-1.06-2.57.87-.36c.92-.38,1.52-.17,1.82.57.36.88-.05,1.7-1.1,2.14Z"/>
    <path class="st2" d="M141.27,75.93l3.63,5.06-.52.73.48.66,3.3-2.37-.48-.66-1.04.65-1.19-1.66.41-.29c2.09-1.5,2.64-3.27,1.69-4.6-.96-1.34-2.46-1.35-4.36.02l-3.22,2.31.48.66.82-.52ZM143.71,74.43c.88-.64,1.66-.52,2.26.32.52.73.32,1.65-.74,2.41l-.41.29-1.81-2.52.7-.5Z"/>
    <path class="st2" d="M155.89,75.92c2.34-.99,3.19-3.26,2.14-5.73-.98-2.31-3.14-3.15-5.48-2.16-2.35,1-3.19,3.24-2.14,5.72.98,2.31,3.13,3.17,5.49,2.18ZM153.01,69.17c1.21-.51,2.47.25,3.18,1.92.73,1.71.4,3.16-.79,3.67-1.2.51-2.45-.24-3.17-1.93-.72-1.7-.42-3.16.78-3.66Z"/>
    <path class="st2" d="M186.31,74.19l-1.01-.45.84-2.31.73.26.62,3.78,2.7.98.28-.77-.99-.42-.76-3.22c1.18,0,2.07-.55,2.42-1.52.53-1.47-.25-2.55-2.44-3.35l-3.61-1.31-.28.77.89.39-2.12,5.86-.89-.02-.28.77,3.64,1.32.28-.77ZM187.42,67.88l.88.32c.94.34,1.24.9.96,1.65-.32.9-1.18,1.23-2.25.84l-.54-.2.95-2.62Z"/>
    <path class="st2" d="M162.55,161.06l-1.01-.28c-.63-.17-1.21-.37-1.7-.58.41-.6.81-1.37,1.25-2.28l-1.93-1.1c-.49,1.1-.88,1.95-1.3,2.81-.3.01-.59-.03-1.04-.16-.35-.1-.69-.23-.99-.37.3-.42.62-.94.95-1.6l-1.8-1c-.41.81-.73,1.49-1.02,2.08-.2-.08-1.17-.54-2.11-1.02-.03-.02-2.99-1.68-4.81-2.96l-.97-.71s0,0-.01,0c-.84-.63-1.31-1.06-1.64-1.48-.09-.12-.2-.24-.26-.35.04-.03.09-.07.13-.1l2.67-2.14-1.41-.84-2.12,1.71c-.23.18-.56.23-1.33-.36-.45-.42-1.18-1.3-1.81-2.1,2.25-1.78,2.98-3.75,1.92-5.13-.41-.54-1.16-.86-2.05-.89-.89-.02-1.73.25-2.37.74-1.27.98-1.21,2.74.15,4.86.01.02.03.04.05.06.05.08.1.16.15.24-.85.06-1.95-.11-2.59-.41-.52-.23-1.09-.56-1.74-1l-.34.26,1.36,2.5c1.32.11,2.93-.07,3.92-.46.69.93,1.46,1.75,1.76,2.06.04.05.08.09.1.11,0,0,.01.01.02.02,0,0,.02.02.02.02h0c1.07,1,1.64,1.24,2.37,1.24h.02l-.08.55.07.16h0c.14.27.25.42.4.59h0s0,0,0,0c0,0,.02.02.03.03.07.08.28.29.67.63.02.02.03.03.05.05.05.04.13.13.22.2,1.31,1.22,3.7,3.05,7.81,4.97h0c1.08.57,2.24.99,2.94.29l.3,1.23c.34.24.67.41,1.07.52.82.23,1.68.02,2.5-.64l.33,1.2c.57.31,1.21.56,1.96.77l1.69.47c.44-.8.83-1.78,1.09-2.73.21-.75.44-2.15.6-3.6l-2.17.22c.07,1.57.05,2.28.04,3.71ZM139.36,147.13c-.24-.35-.43-.68-.57-.99h0c-.12-.23-.21-.5-.27-.75,0-.01,0-.02,0-.04-.13-.58-.14-1.1-.14-1.1.96-.4,1.63-.4,1.63-.4.34,0,.64.1.8.31.31.4.17.92,0,1.29-.25.55-.76,1.14-1.44,1.68Z"/>
  </g>
  <path class="st5" d="M122.58,118.16"/>
  <path class="st6" d="M44.28,90.05"/>
</svg>