<?xml version="1.0" encoding="UTF-8"?>
<svg id="Layer_1" xmlns="http://www.w3.org/2000/svg" version="1.1" viewBox="0 0 608.14 608.14">
  <!-- Generator: Adobe Illustrator 29.8.1, SVG Export Plug-In . SVG Version: 2.1.1 Build 2)  -->
  <defs>
    <style>
      .st0 {
        fill: #ad7b55;
      }
    </style>
  </defs>
  <path class="st0" d="M304.07,608.14c-81.22,0-157.58-31.63-215.01-89.06C31.63,461.65,0,385.29,0,304.07S31.63,146.49,89.06,89.06C146.49,31.63,222.85,0,304.07,0s157.58,31.63,215.01,89.06c57.43,57.43,89.06,133.79,89.06,215.01s-31.63,157.58-89.06,215.01c-57.43,57.43-133.79,89.06-215.01,89.06ZM304.07,105.03c-109.75,0-199.04,89.29-199.04,199.04s89.29,199.04,199.04,199.04,199.04-89.29,199.04-199.04-89.29-199.04-199.04-199.04Z"/>
</svg>