<?xml version="1.0" encoding="UTF-8"?>
<svg id="Layer_1" xmlns="http://www.w3.org/2000/svg" version="1.1" viewBox="0 0 2253.02 2246.11">
  <!-- Generator: Adobe Illustrator 29.8.1, SVG Export Plug-In . SVG Version: 2.1.1 Build 2)  -->
  <defs>
    <style>
      .st0 {
        fill: #9e9e9e;
      }
    </style>
  </defs>
  <path class="st0" d="M1122.56,2221.77c-1.39,0-2.78,0-4.18,0l.35-80c1.27,0,2.55,0,3.82,0v80ZM1184.71,2220.06l-4.39-79.88c1.27-.07,2.54-.14,3.82-.22l4.75,79.86c-1.39.08-2.78.16-4.17.24ZM1056.22,2219.78c-1.38-.08-2.76-.17-4.14-.26l5.1-79.84c1.28.08,2.56.16,3.84.24l-4.8,79.86ZM1250.88,2214.39l-9.26-79.46c1.28-.15,2.57-.3,3.85-.45l9.5,79.43c-1.36.16-2.73.32-4.09.48ZM990.14,2213.83c-1.38-.17-2.77-.34-4.15-.51l9.91-79.38c1.26.16,2.53.31,3.79.46l-9.55,79.43ZM1316.54,2204.75l-14-78.77c1.26-.22,2.53-.45,3.79-.68l14.3,78.71c-1.36.25-2.72.49-4.09.74ZM924.49,2203.9c-1.35-.25-2.7-.5-4.05-.75l14.59-78.66c1.27.24,2.54.47,3.81.7l-14.35,78.7ZM1381.55,2191.14l-18.8-77.76c1.25-.3,2.51-.61,3.76-.92l19.05,77.7c-1.34.33-2.67.65-4.01.98ZM859.56,2190.01c-1.35-.33-2.69-.66-4.03-1l19.4-77.61c1.24.31,2.49.62,3.73.93l-19.1,77.69ZM1445.59,2173.6l-23.48-76.48c1.23-.38,2.46-.76,3.69-1.14l23.75,76.39c-1.32.41-2.63.82-3.95,1.22ZM795.59,2172.19c-1.33-.41-2.66-.83-3.99-1.25l24.1-76.29c1.23.39,2.45.77,3.68,1.16l-23.79,76.38ZM1508.44,2152.2l-28.08-74.91c1.2-.45,2.4-.9,3.59-1.36l28.37,74.8c-1.3.49-2.59.98-3.89,1.47ZM732.68,2150.46c-1.3-.49-2.6-.99-3.9-1.49l28.72-74.67c1.2.46,2.4.92,3.6,1.38l-28.42,74.78ZM1569.76,2127.07l-32.54-73.08c1.16-.52,2.32-1.04,3.48-1.56l32.85,72.94c-1.26.57-2.53,1.13-3.79,1.7ZM671.23,2124.94c-1.26-.57-2.52-1.14-3.78-1.72l33.19-72.79c1.17.54,2.35,1.07,3.52,1.6l-32.93,72.91ZM1629.47,2098.25l-36.93-70.97c1.13-.59,2.26-1.18,3.38-1.77l37.23,70.81c-1.23.64-2.46,1.29-3.68,1.93ZM611.49,2095.75c-1.23-.65-2.46-1.3-3.69-1.95l37.58-70.62c1.13.6,2.27,1.2,3.4,1.8l-37.29,70.78ZM1687.34,2065.87l-41.15-68.61c1.09-.66,2.19-1.32,3.28-1.98l41.42,68.44c-1.18.72-2.37,1.43-3.55,2.14ZM553.64,2063c-1.18-.72-2.36-1.43-3.53-2.15l41.73-68.25c1.1.67,2.21,1.35,3.31,2.02l-41.52,68.38ZM1743.17,2030.05l-45.22-65.99c1.06-.73,2.12-1.45,3.17-2.18l45.45,65.83c-1.13.78-2.27,1.56-3.4,2.34ZM497.92,2026.84c-1.14-.79-2.28-1.58-3.42-2.38l45.81-65.59c1.05.73,2.1,1.46,3.15,2.19l-45.54,65.77ZM1796.73,1990.93l-49.08-63.17c1.01-.78,2.01-1.57,3.01-2.35l49.35,62.96c-1.09.86-2.19,1.71-3.28,2.56ZM444.47,1987.38c-1.09-.86-2.19-1.72-3.27-2.58l49.7-62.69c1,.79,2,1.58,3.01,2.37l-49.43,62.9ZM1847.87,1948.64l-52.82-60.09c.96-.85,1.93-1.7,2.89-2.55l53.03,59.9c-1.03.91-2.07,1.83-3.11,2.74ZM393.52,1944.8c-1.03-.91-2.05-1.83-3.08-2.74l53.32-59.64c.96.86,1.93,1.72,2.89,2.58l-53.13,59.81ZM1896.39,1903.35l-56.33-56.8c.92-.91,1.83-1.82,2.75-2.73l56.51,56.63c-.97.97-1.95,1.94-2.92,2.91ZM345.23,1899.24c-.97-.98-1.94-1.95-2.91-2.93l56.82-56.32c.91.91,1.81,1.83,2.73,2.74l-56.63,56.51ZM1942.11,1855.22l-59.64-53.32c.86-.96,1.71-1.92,2.56-2.88l59.84,53.1c-.92,1.03-1.84,2.07-2.76,3.1ZM299.78,1850.89c-.92-1.04-1.83-2.07-2.75-3.11l60.1-52.8c.85.96,1.69,1.92,2.54,2.88l-59.9,53.03ZM1984.86,1804.43l-62.72-49.66c.8-1.01,1.59-2.02,2.39-3.03l62.9,49.43c-.85,1.09-1.71,2.17-2.57,3.26ZM257.32,1799.9c-.85-1.09-1.71-2.18-2.56-3.28l63.18-49.07c.78,1.01,1.57,2.01,2.35,3.02l-62.98,49.33ZM2024.51,1751.12l-65.61-45.77c.74-1.05,1.47-2.11,2.2-3.17l65.78,45.53c-.79,1.14-1.58,2.27-2.37,3.41ZM218,1746.46c-.79-1.14-1.58-2.29-2.36-3.43l66.03-45.17c.72,1.05,1.44,2.1,2.16,3.15l-65.83,45.46ZM2060.86,1695.52l-68.24-41.75c.67-1.09,1.33-2.18,2-3.28l68.42,41.46c-.72,1.19-1.45,2.38-2.17,3.57ZM181.99,1690.76c-.72-1.19-1.43-2.37-2.15-3.56l68.63-41.1c.65,1.09,1.31,2.18,1.97,3.27l-68.46,41.4ZM2093.81,1637.79l-70.64-37.54c.6-1.14,1.21-2.28,1.81-3.42l70.78,37.29c-.64,1.22-1.29,2.45-1.94,3.67ZM149.41,1633.02c-.64-1.22-1.28-2.45-1.92-3.67l70.97-36.92c.59,1.13,1.18,2.26,1.77,3.39l-70.82,37.21ZM2123.2,1578.17l-72.77-33.23c.53-1.16,1.05-2.32,1.58-3.48l72.93,32.88c-.58,1.28-1.16,2.56-1.74,3.83ZM120.38,1573.4c-.57-1.26-1.13-2.52-1.69-3.78l73.08-32.54c.52,1.17,1.04,2.33,1.56,3.49l-72.95,32.83ZM2148.94,1516.79l-74.69-28.65c.46-1.21.93-2.42,1.39-3.63l74.79,28.41c-.49,1.29-.98,2.58-1.48,3.87ZM95.04,1512.17c-.49-1.29-.97-2.58-1.46-3.87l74.91-28.08c.45,1.21.91,2.41,1.36,3.62l-74.82,28.33ZM2170.89,1453.96l-76.3-24.04c.39-1.24.78-2.47,1.16-3.71l76.38,23.79c-.41,1.32-.82,2.64-1.24,3.96ZM73.41,1449.38c-.41-1.32-.82-2.63-1.22-3.95l76.48-23.47c.38,1.23.76,2.46,1.14,3.69l-76.4,23.73ZM2188.94,1390.03l-77.62-19.35c.31-1.25.62-2.5.93-3.76l77.69,19.1c-.33,1.34-.66,2.67-.99,4.01ZM55.66,1385.4c-.33-1.35-.66-2.7-.98-4.05l77.78-18.73c.3,1.24.6,2.49.91,3.73l-77.7,19.04ZM2203.06,1325.15l-78.66-14.61c.24-1.27.47-2.54.7-3.81l78.7,14.36c-.25,1.35-.5,2.71-.75,4.06ZM41.82,1320.45c-.25-1.36-.49-2.72-.73-4.08l78.77-14c.23,1.27.45,2.53.68,3.8l-78.72,14.27ZM2213.21,1259.58l-79.38-9.9c.16-1.26.31-2.53.46-3.79l79.43,9.55c-.17,1.38-.33,2.76-.51,4.15ZM31.95,1254.81c-.16-1.37-.33-2.75-.48-4.12l79.47-9.2c.15,1.27.3,2.55.45,3.82l-79.43,9.5ZM2219.39,1193.5l-79.84-5.1c.08-1.27.16-2.54.24-3.82l79.86,4.75c-.08,1.39-.17,2.78-.26,4.17ZM26.05,1188.71c-.08-1.38-.16-2.77-.24-4.16l79.88-4.39c.07,1.28.14,2.55.22,3.83l-79.86,4.72ZM2221.61,1127.17l-80-.29c0-1.28,0-2.57,0-3.85h80c0,1.38,0,2.76,0,4.15ZM104.12,1122.42l-80-.06c0-1.38,0-2.75,0-4.13l80,.32c0,1.29,0,2.58,0,3.87ZM2140.08,1066.48c-.07-1.27-.14-2.54-.21-3.81l79.86-4.69c.08,1.39.16,2.78.24,4.17l-79.88,4.33ZM105.99,1060.86l-79.86-4.8c.08-1.38.17-2.76.26-4.14l79.84,5.1c-.08,1.28-.16,2.56-.24,3.84ZM2134.88,1005.14c-.15-1.28-.3-2.55-.45-3.82l79.44-9.44c.16,1.37.32,2.75.48,4.12l-79.48,9.14ZM111.53,999.54l-79.42-9.58c.17-1.38.34-2.76.51-4.14l79.38,9.91c-.16,1.27-.31,2.54-.47,3.8ZM2126,944.27c-.23-1.27-.45-2.54-.68-3.81l78.72-14.24c.24,1.35.49,2.71.73,4.06l-78.77,14ZM120.75,938.69l-78.7-14.38c.25-1.36.5-2.72.75-4.08l78.64,14.68c-.24,1.26-.47,2.52-.7,3.78ZM2113.43,884c-.3-1.25-.6-2.49-.91-3.74l77.71-18.99c.33,1.34.66,2.69.98,4.04l-77.79,18.69ZM133.64,878.52l-77.68-19.13c.33-1.35.67-2.7,1.01-4.05l77.6,19.46c-.31,1.24-.62,2.48-.92,3.72ZM2097.24,824.63c-.38-1.22-.75-2.45-1.13-3.67l76.41-23.68c.41,1.32.82,2.65,1.22,3.97l-76.51,23.38ZM150.17,819.25l-76.37-23.82c.41-1.33.83-2.65,1.25-3.98l76.28,24.11c-.39,1.23-.77,2.46-1.16,3.69ZM2077.46,766.37c-.45-1.2-.9-2.4-1.35-3.59l74.82-28.31c.49,1.3.98,2.6,1.46,3.9l-74.94,28.01ZM170.32,760.97l-74.77-28.45c.49-1.3.99-2.59,1.49-3.88l74.67,28.72c-.46,1.2-.92,2.41-1.38,3.62ZM2054.21,709.5c-.52-1.17-1.04-2.33-1.56-3.49l72.98-32.78c.57,1.26,1.13,2.52,1.69,3.78l-73.11,32.49ZM193.98,704.03l-72.9-32.95c.57-1.27,1.15-2.54,1.73-3.8l72.77,33.24c-.53,1.17-1.06,2.33-1.59,3.5ZM2027.56,654.15c-.59-1.13-1.18-2.26-1.77-3.39l70.85-37.16c.64,1.22,1.28,2.45,1.92,3.68l-71,36.87ZM221.06,648.65l-70.78-37.29c.65-1.23,1.3-2.46,1.95-3.68l70.63,37.57c-.6,1.13-1.2,2.27-1.8,3.4ZM1997.58,600.47c-.65-1.09-1.31-2.19-1.97-3.28l68.48-41.36c.71,1.18,1.43,2.37,2.14,3.56l-68.65,41.08ZM251.43,595.04l-68.38-41.53c.72-1.18,1.44-2.37,2.17-3.55l68.22,41.79c-.67,1.1-1.34,2.19-2.01,3.29ZM1964.43,548.7c-.73-1.06-1.46-2.12-2.19-3.18l65.87-45.4c.78,1.13,1.56,2.26,2.33,3.4l-66.02,45.18ZM284.99,543.36l-65.76-45.56c.79-1.14,1.58-2.27,2.37-3.41l65.59,45.8c-.74,1.05-1.47,2.11-2.2,3.17ZM1928.16,498.96c-.78-1.01-1.56-2.01-2.35-3.02l63.02-49.29c.85,1.09,1.71,2.19,2.56,3.28l-63.22,49.02ZM321.59,493.81l-62.89-49.45c.86-1.09,1.72-2.18,2.58-3.26l62.69,49.69c-.8,1.01-1.59,2.01-2.38,3.02ZM1889,451.51c-.85-.97-1.7-1.93-2.55-2.9l59.95-52.97c.91,1.03,1.82,2.06,2.73,3.1l-60.13,52.77ZM361.1,446.57l-59.8-53.15c.92-1.03,1.83-2.06,2.75-3.09l59.62,53.35c-.86.96-1.72,1.92-2.57,2.88ZM1847.03,406.47c-.9-.91-1.8-1.82-2.71-2.73l56.64-56.5c.98.98,1.95,1.96,2.93,2.95l-56.86,56.28ZM403.38,401.78l-56.51-56.63c.98-.98,1.97-1.96,2.95-2.93l56.27,56.86c-.91.9-1.81,1.8-2.72,2.7ZM1802.42,364.02c-.96-.86-1.92-1.72-2.88-2.57l53.18-59.77c1.03.92,2.06,1.83,3.09,2.75l-53.38,59.59ZM448.25,359.63l-53-59.92c1.03-.91,2.06-1.82,3.1-2.73l52.8,60.1c-.97.85-1.93,1.7-2.9,2.55ZM1755.33,324.31c-1-.8-2.01-1.59-3.02-2.39l49.47-62.87c1.09.86,2.18,1.72,3.26,2.58l-49.71,62.68ZM495.55,320.26l-49.3-63c1.09-.85,2.17-1.7,3.26-2.54l49.07,63.18c-1.01.79-2.03,1.58-3.04,2.37ZM1705.94,287.51c-1.05-.74-2.11-1.47-3.17-2.2l45.6-65.73c1.14.79,2.27,1.58,3.41,2.37l-45.84,65.57ZM545.12,283.82l-45.42-65.86c1.14-.78,2.27-1.56,3.41-2.34l45.18,66.02c-1.06.72-2.11,1.45-3.17,2.18ZM1654.41,253.75c-1.1-.68-2.21-1.35-3.31-2.02l41.55-68.36c1.18.72,2.36,1.43,3.53,2.16l-41.77,68.23ZM596.78,250.43l-41.38-68.47c1.18-.72,2.37-1.43,3.56-2.14l41.09,68.64c-1.09.65-2.19,1.31-3.28,1.97ZM1600.91,223.15c-1.13-.6-2.27-1.21-3.4-1.8l37.31-70.77c1.23.65,2.46,1.3,3.68,1.95l-37.59,70.62ZM650.34,220.24l-37.17-70.84c1.22-.64,2.45-1.28,3.67-1.92l36.89,70.99c-1.13.59-2.26,1.18-3.39,1.77ZM1545.64,195.85c-1.17-.53-2.34-1.07-3.51-1.6l32.97-72.89c1.27.57,2.53,1.15,3.79,1.73l-33.25,72.76ZM705.59,193.36l-32.82-72.96c1.26-.57,2.52-1.13,3.79-1.69l32.52,73.09c-1.16.52-2.32,1.04-3.48,1.56ZM1488.82,171.96c-1.2-.46-2.4-.92-3.6-1.38l28.46-74.77c1.3.49,2.6.99,3.9,1.49l-28.75,74.66ZM762.34,169.89l-28.31-74.82c1.29-.49,2.59-.98,3.89-1.46l28.02,74.93c-1.2.45-2.4.9-3.6,1.35ZM1430.61,151.56c-1.22-.39-2.45-.77-3.68-1.16l23.84-76.36c1.33.42,2.66.83,3.99,1.26l-24.16,76.27ZM820.53,149.87l-23.71-76.41c1.31-.41,2.63-.81,3.95-1.22l23.46,76.48c-1.23.38-2.47.76-3.7,1.14ZM1371.39,134.79c-1.24-.31-2.49-.62-3.73-.93l19.15-77.67c1.35.33,2.69.67,4.03,1l-19.46,77.6ZM879.83,133.43l-19.02-77.71c1.34-.33,2.69-.66,4.04-.98l18.72,77.78c-1.25.3-2.49.6-3.74.91ZM1311.29,121.65c-1.27-.24-2.53-.47-3.8-.7l14.41-78.69c1.36.25,2.71.5,4.07.75l-14.68,78.64ZM940.02,120.63l-14.27-78.72c1.37-.25,2.73-.49,4.1-.73l13.94,78.78c-1.26.22-2.52.45-3.77.68ZM1250.45,112.18c-1.27-.16-2.53-.31-3.8-.47l9.61-79.42c1.38.17,2.76.34,4.14.51l-9.94,79.38ZM1000.88,111.5l-9.46-79.44c1.37-.16,2.74-.32,4.11-.48l9.19,79.47c-1.28.15-2.56.3-3.84.45ZM1189.19,106.39c-1.29-.08-2.57-.16-3.86-.24l4.83-79.85c1.38.08,2.75.17,4.13.26l-5.1,79.84ZM1062.2,106.04l-4.69-79.86c1.38-.08,2.76-.16,4.14-.24l4.39,79.88c-1.28.07-2.56.14-3.85.22ZM1127.62,104.28c-1.28,0-2.56,0-3.84-.01l.06-80c1.39,0,2.77,0,4.16.01l-.38,80Z"/>
</svg>