<?xml version="1.0" encoding="UTF-8"?>
<svg id="Layer_1" xmlns="http://www.w3.org/2000/svg" version="1.1" viewBox="0 0 283.46 283.46">
  <!-- Generator: Adobe Illustrator 29.8.1, SVG Export Plug-In . SVG Version: 2.1.1 Build 2)  -->
  <defs>
    <style>
      .st0 {
        fill: #dfeaef;
      }
    </style>
  </defs>
  <path class="st0" d="M140.49,275.22c-18.15,0-35.76-3.56-52.35-10.57-7.97-3.37-15.66-7.54-22.85-12.4-7.12-4.81-13.81-10.33-19.9-16.42s-11.61-12.78-16.42-19.9c-4.86-7.19-9.03-14.88-12.4-22.85-7.02-16.59-10.57-34.2-10.57-52.35s3.56-35.76,10.57-52.35c3.37-7.97,7.54-15.66,12.4-22.85,4.81-7.12,10.33-13.81,16.42-19.9,6.08-6.08,12.78-11.61,19.9-16.42,7.19-4.86,14.88-9.03,22.85-12.4,16.59-7.02,34.2-10.57,52.35-10.57s35.76,3.56,52.35,10.57c7.97,3.37,15.66,7.54,22.85,12.4,7.12,4.81,13.81,10.33,19.9,16.42,6.08,6.08,11.61,12.78,16.42,19.9,4.86,7.19,9.03,14.88,12.4,22.85,7.02,16.59,10.57,34.2,10.57,52.35s-3.56,35.76-10.57,52.35c-3.37,7.97-7.54,15.66-12.4,22.85-4.81,7.12-10.33,13.81-16.42,19.9-6.08,6.08-12.78,11.61-19.9,16.42-7.19,4.86-14.88,9.03-22.85,12.4-16.59,7.02-34.2,10.57-52.35,10.57ZM140.49,24.04c-15.76,0-31.04,3.08-45.42,9.17-13.89,5.88-26.37,14.29-37.09,25.01-10.72,10.72-19.13,23.2-25.01,37.09-6.08,14.38-9.17,29.66-9.17,45.42s3.08,31.04,9.17,45.42c5.88,13.89,14.29,26.37,25.01,37.09,10.72,10.72,23.2,19.13,37.09,25.01,14.38,6.08,29.66,9.17,45.42,9.17s31.04-3.08,45.42-9.17c13.89-5.88,26.37-14.29,37.09-25.01,10.72-10.72,19.13-23.2,25.01-37.09,6.08-14.38,9.17-29.66,9.17-45.42s-3.08-31.04-9.17-45.42c-5.88-13.89-14.29-26.37-25.01-37.09-10.72-10.72-23.2-19.13-37.09-25.01-14.38-6.08-29.66-9.17-45.42-9.17Z"/>
</svg>